<?xml version="1.0" encoding="UTF-8" standalone="no"?>
<!-- Created with Inkscape (http://www.inkscape.org/) -->

<svg
   version="1.1"
   id="svg2"
   width="1300.6791"
   height="1300.4868"
   viewBox="0 0 1300.6791 1300.4868"
   sodipodi:docname="logo.svg"
   inkscape:version="1.3 (0e150ed6c4, 2023-07-21)"
   xmlns:inkscape="http://www.inkscape.org/namespaces/inkscape"
   xmlns:sodipodi="http://sodipodi.sourceforge.net/DTD/sodipodi-0.dtd"
   xmlns="http://www.w3.org/2000/svg"
   xmlns:svg="http://www.w3.org/2000/svg">
  <defs
     id="defs6" />
  <sodipodi:namedview
     id="namedview4"
     pagecolor="#ffffff"
     bordercolor="#000000"
     borderopacity="0.25"
     inkscape:showpageshadow="2"
     inkscape:pageopacity="0.0"
     inkscape:pagecheckerboard="0"
     inkscape:deskcolor="#d1d1d1"
     showgrid="false"
     inkscape:zoom="0.85489207"
     inkscape:cx="918.24457"
     inkscape:cy="511.76051"
     inkscape:window-width="1680"
     inkscape:window-height="979"
     inkscape:window-x="1912"
     inkscape:window-y="-8"
     inkscape:window-maximized="1"
     inkscape:current-layer="g10" />
  <g
     id="g8"
     inkscape:groupmode="layer"
     inkscape:label="ink_ext_XXXXXX"
     transform="matrix(1.3333333,0,0,-1.3333333,-42.093199,5088.6467)">
    <g
       id="g10"
       transform="scale(0.1)">
      <path
         d="m 1106.79,28462.8 h 272.07 l 244.62,1198 H 3777.9 l 244.72,-1198 h 271.97 l -594.45,2910.7 -253.8,-89.2 268.47,-1314.6 H 1686.57 l 268.47,1314.6 -253.8,89.2 -594.45,-2910.7"
         style="fill:#231f20;fill-opacity:1;fill-rule:nonzero;stroke:none"
         id="path3512" />
      <path
         d="m 1196.88,28507.8 h -34.96 l 458.66,2245.9 h 34.99 l -458.69,-2245.9"
         style="fill:#807e7f;fill-opacity:1;fill-rule:nonzero;stroke:none"
         id="path3514" />
      <path
         d="m 4239.48,28507.8 h -31.17 l -458.69,2245.9 h 31.18 l 458.68,-2245.9"
         style="fill:#807e7f;fill-opacity:1;fill-rule:nonzero;stroke:none"
         id="path3516" />
      <path
         d="M 3515.31,29899.4 H 1860.32 c -15.19,0 -27.5,9.2 -27.5,20.5 0,1.7 0.26,3.3 0.76,4.8 h 1708.47 c 0.5,-1.5 0.76,-3.1 0.76,-4.8 0,-11.3 -12.31,-20.5 -27.5,-20.5"
         style="fill:#807e7f;fill-opacity:1;fill-rule:nonzero;stroke:none"
         id="path3518" />
      <path
         d="m 1342.12,28507.8 h -180.2 l 573.08,2806.1 168.1,-59.1 -260.61,-1276.1 c -2.71,-13.2 0.69,-27 9.23,-37.5 8.54,-10.4 21.34,-16.5 34.86,-16.5 h 2028.23 c 13.52,0 26.31,6.1 34.86,16.5 8.54,10.5 11.93,24.3 9.23,37.5 l -260.61,1276.1 168.09,59.1 573.1,-2806.1 h -180.13 l -237.36,1162 c -4.27,21 -22.7,36 -44.09,36 H 1623.48 c -21.38,0 -39.81,-15 -44.08,-36 l -237.28,-1162 m -235.32,-90 h 272.06 c 21.38,0 39.81,15.1 44.09,36 l 237.27,1162 h 2080.94 l 237.37,-1162 c 4.27,-20.9 22.7,-36 44.09,-36 h 271.97 c 13.52,0 26.32,6.1 34.86,16.6 8.54,10.4 11.94,24.2 9.23,37.4 l -594.45,2910.7 c -2.61,12.8 -10.59,23.8 -21.9,30.2 -11.32,6.4 -24.86,7.6 -37.12,3.3 l -253.8,-89.3 c -21.2,-7.5 -33.64,-29.4 -29.15,-51.4 l 257.43,-1260.6 h -1918 l 257.44,1260.6 c 4.51,22 -7.94,43.9 -29.15,51.4 l -253.8,89.3 c -12.26,4.3 -25.8,3.1 -37.11,-3.3 -11.33,-6.4 -19.31,-17.4 -21.91,-30.2 l -594.45,-2910.7 c -2.7,-13.2 0.68,-27 9.22,-37.4 8.56,-10.5 21.34,-16.6 34.87,-16.6"
         style="fill:#231f20;fill-opacity:1;fill-rule:nonzero;stroke:none"
         id="path3520" />
      <path
         d="m 450.699,30911.2 h 4499.99 v 5400.01 H 450.699 Z"
         style="fill:#f1f2f2;fill-opacity:1;fill-rule:nonzero;stroke:none"
         id="path3522" />
      <path
         d="M 4892.2,30969.7 H 509.199 v 5283 H 4892.2 v -5283 m -4441.501,-117 H 4950.69 c 32.32,0 58.51,26.2 58.51,58.5 v 5400 c 0,32.3 -26.19,58.5 -58.51,58.5 H 450.699 c -32.312,0 -58.496,-26.2 -58.496,-58.5 v -5400 c 0,-32.3 26.184,-58.5 58.496,-58.5"
         style="fill:#231f20;fill-opacity:1;fill-rule:nonzero;stroke:none"
         id="path3524" />
      <path
         d="M 473.203,36468.7 H 4928.19 c 86.99,0 157.51,-70.5 157.51,-157.5 0,-87 -70.52,-157.5 -157.51,-157.5 H 473.203 c -86.988,0 -157.504,70.5 -157.504,157.5 0,87 70.516,157.5 157.504,157.5"
         style="fill:#231f20;fill-opacity:1;fill-rule:nonzero;stroke:none"
         id="path3526" />
      <path
         d="M 4928.19,36356.2 H 473.203 c -12.43,0 -22.504,10.1 -22.504,22.5 0,12.4 10.074,22.5 22.504,22.5 H 4928.19 c 12.43,0 22.5,-10.1 22.5,-22.5 0,-12.4 -10.07,-22.5 -22.5,-22.5"
         style="fill:#7b7979;fill-opacity:1;fill-rule:nonzero;stroke:none"
         id="path3528" />
      <path
         d="M 473.203,31068.7 H 4928.19 c 86.99,0 157.51,-70.5 157.51,-157.5 0,-87 -70.52,-157.5 -157.51,-157.5 H 473.203 c -86.988,0 -157.504,70.5 -157.504,157.5 0,87 70.516,157.5 157.504,157.5"
         style="fill:#231f20;fill-opacity:1;fill-rule:nonzero;stroke:none"
         id="path3530" />
      <path
         d="M 4928.19,30956.2 H 473.203 c -12.43,0 -22.504,10.1 -22.504,22.5 0,12.4 10.074,22.5 22.504,22.5 H 4928.19 c 12.43,0 22.5,-10.1 22.5,-22.5 0,-12.4 -10.07,-22.5 -22.5,-22.5"
         style="fill:#7b7979;fill-opacity:1;fill-rule:nonzero;stroke:none"
         id="path3532" />
      <path
         d="m 3254.47,31732 h 634.363 v 2258.71 H 3254.47 Z"
         style="fill:#548cff;fill-opacity:1;fill-rule:nonzero;stroke:none"
         id="path3534" />
      <path
         d="m 3843.83,31777 h -544.35 v 2168.7 h 544.35 V 31777 m -589.36,-90.1 h 634.36 c 24.86,0 45.01,20.2 45.01,45.1 v 2258.7 c 0,24.8 -20.15,45 -45.01,45 h -634.36 c -24.86,0 -45,-20.2 -45,-45 V 31732 c 0,-24.9 20.14,-45.1 45,-45.1"
         style="fill:#231f20;fill-opacity:1;fill-rule:nonzero;stroke:none"
         id="path3536" />
      <path
         d="m 2383.51,31732 h 634.359 v 3005.61 H 2383.51 Z"
         style="fill:#548cff;fill-opacity:1;fill-rule:nonzero;stroke:none"
         id="path3538" />
      <path
         d="m 2972.88,31777 h -544.36 v 2915.6 h 544.36 V 31777 m -589.36,-90.1 h 634.36 c 24.86,0 45,20.2 45,45.1 v 3005.6 c 0,24.8 -20.14,45 -45,45 h -634.36 c -24.86,0 -45,-20.2 -45,-45 V 31732 c 0,-24.9 20.14,-45.1 45,-45.1"
         style="fill:#231f20;fill-opacity:1;fill-rule:nonzero;stroke:none"
         id="path3540" />
      <path
         d="m 1512.56,31732 h 634.363 v 3721.82 H 1512.56 Z"
         style="fill:#548cff;fill-opacity:1;fill-rule:nonzero;stroke:none"
         id="path3542" />
      <path
         d="m 2101.92,31777 h -544.36 v 3631.8 h 544.36 V 31777 m -589.36,-90.1 h 634.36 c 24.86,0 45,20.2 45,45.1 v 3721.8 c 0,24.8 -20.14,45 -45,45 h -634.36 c -24.85,0 -45,-20.2 -45,-45 V 31732 c 0,-24.9 20.15,-45.1 45,-45.1"
         style="fill:#231f20;fill-opacity:1;fill-rule:nonzero;stroke:none"
         id="path3544" />
      <path
         d="m 4492.95,31725.1 -284.337,164.2 v -128.1 h -3090.99 v 3814.9 h 119.15 l -164.15,284.3 -164.17,-284.3 h 119.17 v -3859.9 c 0,-24.9 20.14,-45 45,-45 h 3135.99 v -110.3 l 284.337,164.2"
         style="fill:#231f20;fill-opacity:1;fill-rule:nonzero;stroke:none"
         id="path3546" />
      <path
         d="m 4148.172,32141.276 -707.66,326.7 131.16,92.6 c -12.43,12.1 -24.28,26.1 -35.33,42.3 -169.75,261.2 -375.11,502.3 -614.51,704 -511.56,431.6 -1184.7,667.9 -1854.4,659.2 -23.81,-0.3 -26.73,34.4 -3.17,37.9 1068.44,161.2 2135.5,-298.7 2831.68,-1130.6 15.71,-19.2 27.86,-38.5 36.86,-57.9 l 144.45,102 70.92,-776.2"
         style="fill:#008000;fill-opacity:1;fill-rule:nonzero;stroke:none"
         id="path3548" />
      <path
         d="m 1467.56,33842 -419.17,193.5 -0.38,4.2 419.55,-193.7 v -4"
         style="fill:#f7f8f8;fill-opacity:1;fill-rule:nonzero;stroke:none"
         id="path3550" />
      <path
         d="m 1626.5,33614.4 c -0.66,0.7 -1.32,1.4 -1.99,2 l 0.46,0.3 c 0.51,-0.7 1.02,-1.5 1.53,-2.3"
         style="fill:#a1c0ff;fill-opacity:1;fill-rule:nonzero;stroke:none"
         id="path3572" />
      <path
         d="m 1447.4678,33990.076 c 898.15,11.8 1796.42,-407.7 2413.95,-1145.6 12.58,-15.3 22.95,-31.5 30.57,-47.9 5.63,-12.1 16.33,-21.1 29.22,-24.5 12.88,-3.5 26.64,-1 37.54,6.7 l 80.77,57 56.75,-620.9 -566.13,261.3 67.48,47.6 c 10.93,7.8 17.86,19.9 18.91,33.3 1.04,13.3 -3.9,26.4 -13.49,35.8 -10.43,10.1 -20.27,21.8 -29.28,34.9 -179.76,276.6 -389.33,516.6 -622.94,713.5 -419.03,353.6 -951.83,581.1 -1503.35,648.8 z m 41.1,90.6 c -144.46,0 -288.49,-10.7 -431.03,-32.2 -33.74,-5.1 -57.09,-34.5 -54.31,-68.5 2.75,-33.8 30.15,-58.9 63.89,-58.9 h 0.9 c 11.66,0.1 23.34,0.2 35,0.2 649.38,0 1299.86,-235.4 1789.79,-648.8 226.98,-191.3 430.79,-424.8 605.79,-694.2 l 0.61,-0.9 c 1.99,-2.9 4.03,-5.8 6.08,-8.6 l -90.74,-64 c -13.13,-9.3 -20.32,-24.9 -18.86,-40.9 1.47,-16 11.36,-30 25.95,-36.8 l 707.67,-326.6 c 14.58,-6.8 31.68,-5.2 44.82,4.1 13.13,9.2 20.32,24.8 18.86,40.8 l -70.93,776.2 c -1.47,16 -11.35,30 -25.95,36.8 -14.61,6.7 -31.68,5.1 -44.82,-4.1 l -104.37,-73.7 c -5.06,7.2 -10.46,14.3 -16.21,21.3 -351.64,420.2 -799.02,748.9 -1294.02,950.9 -370.11,151 -760.47,227.9 -1148.12,227.9"
         style="fill:#231f20;fill-opacity:1;fill-rule:nonzero;stroke:none"
         id="path3576" />
      <path
         d="m 8595.57,32241 c 0,-1130.7 -475.96,-1635.1 -1063.07,-1635.1 -587.13,0 -1063.09,504.4 -1063.09,1635.1 0,1130.8 593.91,2459.7 1063.09,2459.7 528.56,0 1063.07,-1328.9 1063.07,-2459.7"
         style="fill:#ffd384;fill-opacity:1;fill-rule:nonzero;stroke:none"
         id="path3578" />
      <path
         d="m 8534.18,32241 c 0,-967.2 -374.45,-1544.6 -1001.68,-1544.6 -627.23,0 -1001.7,577.4 -1001.7,1544.6 0,509.8 129.26,1109.7 345.79,1604.8 206.2,471.4 457.53,764.3 655.91,764.3 226.14,0 473.14,-278.1 677.63,-763 202.91,-481.2 324.05,-1081.6 324.05,-1606.1 m -219.81,1701.7 c -227.4,539.2 -512.38,848.5 -781.87,848.5 -243.26,0 -527.03,-316.7 -759.06,-847.2 -228.8,-523.1 -365.4,-1159.8 -365.4,-1703 0,-554.6 114.35,-1006.8 330.65,-1307.5 196.8,-273.6 471.3,-418.2 793.81,-418.2 322.51,0 597.01,144.6 793.8,418.2 216.32,300.7 330.65,752.9 330.65,1307.5 0,556.9 -128.07,1193 -342.58,1701.7"
         style="fill:#231f20;fill-opacity:1;fill-rule:nonzero;stroke:none"
         id="path3580" />
      <path
         d="m 6371.46,29970.7 151.47,-778.9 c 0.49,-2.6 57.97,-332.6 58.06,-335.2 0,0 33.03,-191.3 43.9,-190.1 159.84,18 507.36,82.7 507.36,82.7 9.07,-0.1 202.98,1147.9 202.98,1147.9 2.82,57.9 -967.79,115.8 -963.77,73.6"
         style="fill:#ffd384;fill-opacity:1;fill-rule:nonzero;stroke:none"
         id="path3582" />
      <path
         d="m 6635.18,28866 c 8.33,-48.2 19.12,-104 27.28,-139.4 133.68,17.9 342.58,55.3 424.81,70.3 27.4,135.8 121.3,681.3 187.23,1071 -138.12,36.2 -678.05,69 -838.87,61 l 141.28,-726.6 c 0.53,-2.7 50.13,-285.3 58,-336.4 l 0.27,0.1 m -11.88,-254.6 c -44.75,0 -57.02,47.1 -63.08,70.4 -4.35,16.7 -9.49,39.7 -15.27,68.4 -9.67,47.9 -17.83,95.1 -18.17,97.1 l -0.31,2 c -2.74,17.4 -54.14,313.1 -57.65,332.6 l -151.35,778.3 c -0.33,1.7 -0.59,3.5 -0.76,5.3 -2.09,21.8 8.47,42.9 27.53,55.2 17.6,11.3 44.05,20.5 187.85,19.4 84.73,-0.7 193.78,-5.2 307.07,-12.6 163.83,-10.7 448.64,-34.5 515.36,-73.1 33.86,-19.6 36.2,-48.4 35.64,-59.9 -0.1,-2.2 -0.34,-4.4 -0.7,-6.5 -0.49,-2.9 -49.06,-290.4 -98.12,-574.2 -28.83,-166.8 -52.19,-299.7 -69.43,-395 -10.27,-56.8 -18.46,-100.9 -24.36,-130.9 -3.22,-16.4 -5.9,-29.3 -7.9,-38.1 -7.76,-33.9 -24.69,-52.5 -50.41,-55.2 -37.01,-6.9 -354.42,-65.5 -508.2,-82.8 -2.68,-0.3 -5.26,-0.4 -7.74,-0.4"
         style="fill:#231f20;fill-opacity:1;fill-rule:nonzero;stroke:none"
         id="path3588" />
      <path
         d="m 7174.35,28576.2 c -226.49,-156.1 -385.73,-141.2 -586.38,-29.1 l -110.85,354.4 c -0.68,41 101.12,60.9 114.45,5.4 29.93,-119.7 165.39,-151.4 261.57,-150.5 123.45,-8.1 241.31,47.3 340.61,141.7 15.02,12.8 37.73,-0.7 34.23,-20.4 l -53.63,-301.5"
         style="fill:#414042;fill-opacity:1;fill-rule:nonzero;stroke:none"
         id="path3590" />
      <path
         d="m 6543.06,28894.7 h 0.01 -0.01 m 631.29,-318.5 h 0.1 -0.1 m -544.66,5.1 c 164.53,-88.6 297.32,-108.7 499.14,24.5 l 36.04,202.6 c -98.76,-73.5 -205.71,-108.5 -313.13,-102 h -2.37 c -124.9,0 -268.73,48.4 -305.27,184.3 -3.03,0.6 -7.14,0.4 -11.14,-0.2 l 96.73,-309.2 m 233.1,-170.1 c -103.96,0 -199.94,36.8 -299.2,92.3 -11.16,6.2 -19.51,16.5 -23.33,28.7 l -110.85,354.3 c -1.43,4.6 -2.19,9.4 -2.27,14.1 -0.75,45.4 38.23,82.1 94.81,89.3 57.82,7.3 106.41,-22 118.24,-71.4 27.08,-108.2 181.82,-112.6 212.52,-112.1 1.21,0 2.48,0 3.71,-0.1 130.1,-8.6 236.46,64.9 302.88,128.1 l 1.99,1.8 c 22.98,19.6 54.79,22.5 81.04,7.5 26.55,-15.2 40.25,-44.6 34.88,-74.7 l -53.62,-301.6 c -2.35,-13.2 -9.86,-24.8 -20.86,-32.4 -128.04,-88.3 -237.84,-123.8 -339.94,-123.8"
         style="fill:#231f20;fill-opacity:1;fill-rule:nonzero;stroke:none"
         id="path3594" />
      <path
         d="m 8693.53,29970.7 -151.46,-778.9 c -0.5,-2.6 -57.98,-332.6 -58.06,-335.2 0,0 -33.04,-191.3 -43.9,-190.1 -159.85,18 -507.37,82.7 -507.37,82.7 -9.06,-0.1 -202.98,1147.9 -202.98,1147.9 -2.82,57.9 967.8,115.8 963.77,73.6"
         style="fill:#ffd384;fill-opacity:1;fill-rule:nonzero;stroke:none"
         id="path3600" />
      <path
         d="m 8429.81,28866 c -8.33,-48.2 -19.12,-104 -27.27,-139.4 -133.69,17.9 -342.59,55.3 -424.82,70.3 -27.4,135.8 -121.29,681.3 -187.22,1071 138.11,36.2 678.05,69 838.87,61 l -141.29,-726.6 c -0.53,-2.7 -50.13,-285.3 -58,-336.4 l -0.27,0.1 m 11.88,-254.6 c 44.75,0 57.03,47.1 63.08,70.4 4.35,16.7 9.49,39.7 15.28,68.4 9.66,47.9 17.82,95.1 18.16,97.1 l 0.31,2 c 2.74,17.4 54.14,313.1 57.65,332.6 l 151.35,778.3 c 0.34,1.7 0.6,3.5 0.76,5.3 2.09,21.8 -8.46,42.9 -27.53,55.2 -17.6,11.3 -44.04,20.5 -187.85,19.4 -84.72,-0.7 -193.78,-5.2 -307.06,-12.6 -163.84,-10.7 -448.65,-34.5 -515.37,-73.1 -33.86,-19.6 -36.2,-48.4 -35.64,-59.9 0.11,-2.2 0.34,-4.4 0.7,-6.5 0.49,-2.9 49.07,-290.4 98.12,-574.2 28.83,-166.8 52.19,-299.7 69.43,-395 10.27,-56.8 18.47,-100.9 24.37,-130.9 3.21,-16.4 5.89,-29.3 7.9,-38.1 7.75,-33.9 24.68,-52.5 50.4,-55.2 37.01,-6.9 354.42,-65.5 508.21,-82.8 2.67,-0.3 5.26,-0.4 7.73,-0.4"
         style="fill:#231f20;fill-opacity:1;fill-rule:nonzero;stroke:none"
         id="path3606" />
      <path
         d="m 7890.64,28576.2 c 226.48,-156.1 385.74,-141.2 586.38,-29.1 l 110.85,354.4 c 0.68,41 -101.12,60.9 -114.44,5.4 -29.94,-119.7 -165.4,-151.4 -261.58,-150.5 -123.45,-8.1 -241.31,47.3 -340.6,141.7 -15.03,12.8 -37.74,-0.7 -34.24,-20.4 l 53.63,-301.5"
         style="fill:#414042;fill-opacity:1;fill-rule:nonzero;stroke:none"
         id="path3608" />
      <path
         d="m 8521.94,28894.7 h -0.02 0.02 m -631.3,-318.5 h -0.1 0.1 m 544.67,5.1 c -164.53,-88.6 -297.33,-108.7 -499.15,24.5 l -36.03,202.6 c 98.75,-73.5 205.7,-108.5 313.13,-102 h 2.36 c 124.9,0 268.74,48.4 305.28,184.3 3.02,0.6 7.15,0.4 11.13,-0.2 l -96.72,-309.2 m -233.11,-170.1 c 103.97,0 199.95,36.8 299.2,92.3 11.17,6.2 19.52,16.5 23.33,28.7 l 110.85,354.3 c 1.43,4.6 2.2,9.4 2.29,14.1 0.75,45.4 -38.25,82.1 -94.82,89.3 -57.83,7.3 -106.42,-22 -118.24,-71.4 -27.09,-108.2 -181.83,-112.6 -212.53,-112.1 -1.2,0 -2.48,0 -3.71,-0.1 -130.09,-8.6 -236.45,64.9 -302.87,128.1 l -2,1.8 c -22.98,19.6 -54.78,22.5 -81.04,7.5 -26.55,-15.2 -40.24,-44.6 -34.88,-74.7 l 53.64,-301.6 c 2.33,-13.2 9.84,-24.8 20.84,-32.4 128.05,-88.3 237.85,-123.8 339.94,-123.8"
         style="fill:#231f20;fill-opacity:1;fill-rule:nonzero;stroke:none"
         id="path3612" />
      <path
         d="m 8188.74,31893.7 c -208.63,29.2 -428.75,44.9 -656.24,44.9 -227.5,0 -447.62,-15.7 -656.24,-44.9 -441.61,-61.9 -751.76,-527.5 -689.64,-1030.5 l 142.45,-1153.3 c 354.07,-101.5 765.06,-159.5 1203.43,-159.5 438.37,0 849.37,58.1 1203.45,159.5 l 142.42,1153.3 c 62.12,503 -248.03,968.6 -689.63,1030.5"
         style="fill:#272c52;fill-opacity:1;fill-rule:nonzero;stroke:none"
         id="path3618" />
      <path
         d="m 6370.39,29752.5 c 353.36,-97.8 754.38,-149.5 1162.11,-149.5 407.73,0 808.76,51.7 1162.13,149.5 l 138.08,1118.1 c 28.43,230.2 -24.16,458.6 -148.11,643.1 -123.14,183.3 -301.24,299.7 -501.48,327.7 -210.66,29.5 -429.55,44.5 -650.62,44.5 -221.09,0 -439.99,-15 -650.63,-44.5 -200.25,-28 -378.34,-144.4 -501.48,-327.7 -123.94,-184.5 -176.55,-412.9 -148.1,-643.2 l 138.1,-1118 m 1162.11,-254.8 c -426.8,0 -846.81,55.7 -1214.65,161.2 -18.21,5.2 -31.82,22.5 -34.44,43.7 l -142.45,1153.2 c -31.92,258.5 27.12,514.9 166.24,722 138.33,205.9 338.42,336.6 563.44,368.2 214.35,30 437.02,45.2 661.86,45.2 224.8,0 447.49,-15.2 661.85,-45.2 225.02,-31.6 425.11,-162.3 563.43,-368.2 139.13,-207.1 198.17,-463.5 166.25,-721.9 l -142.42,-1153.3 c -2.62,-21.2 -16.23,-38.5 -34.44,-43.7 -367.84,-105.5 -787.87,-161.2 -1214.67,-161.2"
         style="fill:#231f20;fill-opacity:1;fill-rule:nonzero;stroke:none"
         id="path3620" />
      <path
         d="M 8297.83,31853.3 H 6767.16 v 1352.8 l 765.34,-240 765.33,240 v -1352.8"
         style="fill:#ffffff;fill-opacity:1;fill-rule:nonzero;stroke:none"
         id="path3622" />
      <path
         d="m 7507.49,31893.3 h 50 v 1000.01 h -50 z"
         style="fill:#231f20;fill-opacity:1;fill-rule:nonzero;stroke:none"
         id="path3624" />
      <path
         d="m 7507.49,32645.6 v 18.7 c 6.52,5 12.49,10.6 17.8,16.7 -3.45,-13 -9.57,-25 -17.8,-35.4"
         style="fill:#231f20;fill-opacity:1;fill-rule:nonzero;stroke:none"
         id="path3628" />
      <path
         d="m 7447.76,32660 -33.55,-5.4 c -39.45,-6.4 -79.03,10.5 -100.96,43.1 -36.63,54.5 -87.2,131.9 -95.44,137 l -2.58,1.7 -401.43,401.6 c -25.73,18.9 -12.08,62.3 15.65,53.1 l 483.75,-234.2 c 18.68,-6.1 215.69,-96 215.69,-96 4.01,1.2 4.02,-118.9 3.53,-204.2 -0.28,-48.1 -36.05,-88.9 -84.66,-96.7"
         style="fill:#ffffff;fill-opacity:1;fill-rule:nonzero;stroke:none"
         id="path3630" />
      <path
         d="m 7206.07,32817.9 h 0.02 -0.02 m 23.46,33.5 h 0.01 c 9.06,-5.5 21.04,-22.1 80.16,-110.6 7.47,-11.2 14.83,-22.2 21.7,-32.4 17.26,-25.7 48.33,-39.1 79.17,-34.1 l 33.55,5.4 c 38.52,6.2 66.65,38.6 66.87,77.1 0.75,129.5 -0.54,174.8 -1.54,190.7 -76.24,34.7 -191.18,86.5 -203.4,90.6 l -1.4,0.5 -481.61,233.1 c -0.75,-1.4 -1.57,-3.8 -1.47,-7 0.07,-2.6 0.88,-7.6 5.46,-10.9 l 1.3,-1 1.13,-1.1 400.07,-400.3 m 168.19,-218.1 c -40.97,0 -79.79,19.9 -102.62,53.8 -6.89,10.3 -14.27,21.3 -21.77,32.5 -23.99,36 -59.96,89.9 -68.86,99.4 l -2.44,1.6 -1.32,1 -1.15,1.2 -400.43,400.6 c -22.94,18 -24.99,48.3 -13.5,67.8 10.51,17.9 31,25.4 50.97,18.8 l 1.39,-0.5 484,-234.3 c 23.92,-8.8 169.95,-75.2 208.73,-92.9 l 2.31,0.7 8.86,-6.1 c 11.42,-7.9 13.18,-9.2 11.96,-220.3 -0.35,-57.9 -43.42,-106.8 -102.45,-116.3 l -33.55,-5.4 c -6.73,-1.1 -13.46,-1.6 -20.13,-1.6"
         style="fill:#231f20;fill-opacity:1;fill-rule:nonzero;stroke:none"
         id="path3632" />
      <path
         d="m 7557.49,32650.9 c -5.06,7.3 -9.13,15.4 -12.02,23.9 3.75,-3.7 7.77,-7.3 12.02,-10.5 v -13.4"
         style="fill:#231f20;fill-opacity:1;fill-rule:nonzero;stroke:none"
         id="path3636" />
      <path
         d="m 7617.23,32660 33.56,-5.4 c 39.44,-6.4 79.03,10.5 100.95,43.1 36.64,54.5 87.2,131.9 95.43,137 l 2.6,1.7 401.42,401.6 c 25.73,18.9 12.07,62.3 -15.64,53.1 l -483.76,-234.2 c -18.68,-6.1 -215.69,-96 -215.69,-96 -4,1.2 -4.01,-118.9 -3.52,-204.2 0.28,-48.1 36.05,-88.9 84.65,-96.7"
         style="fill:#ffffff;fill-opacity:1;fill-rule:nonzero;stroke:none"
         id="path3638" />
      <path
         d="m 7858.92,32817.9 h -0.02 0.02 m -238.04,-138.2 33.54,-5.4 c 30.84,-5 61.92,8.4 79.17,34.1 6.87,10.2 14.22,21.2 21.7,32.4 59.13,88.5 71.12,105.1 80.17,110.6 h 0.02 l 401.18,401.4 1.3,1 c 4.58,3.3 5.39,8.3 5.47,10.9 0.08,3.2 -0.73,5.6 -1.48,7 l -481.6,-233.1 -1.4,-0.5 c -12.22,-4.1 -127.16,-55.9 -203.41,-90.6 -0.99,-15.9 -2.29,-61.2 -1.53,-190.7 0.22,-38.5 28.33,-70.9 66.87,-77.1 m 46.39,-46.4 c -6.67,0 -13.39,0.5 -20.12,1.6 l -33.55,5.4 c -59.03,9.5 -102.11,58.4 -102.45,116.3 -1.22,211.1 0.54,212.4 11.96,220.3 l 8.68,6.1 2.39,-0.7 c 38.62,17.6 184.88,84.1 208.82,92.9 l 484,234.3 1.39,0.5 c 19.98,6.6 40.46,-0.9 50.97,-18.8 11.49,-19.5 9.44,-49.8 -13.5,-67.8 l -401.57,-401.8 -1.33,-1 -2.43,-1.6 c -8.91,-9.5 -44.88,-63.4 -68.87,-99.4 -7.5,-11.2 -14.88,-22.2 -21.77,-32.5 -22.82,-33.9 -61.66,-53.8 -102.62,-53.8"
         style="fill:#231f20;fill-opacity:1;fill-rule:nonzero;stroke:none"
         id="path3640" />
      <path
         d="m 8222.07,33659.4 -689.57,-1655 -689.58,1655 c -629.76,-89.5 -866.88,-726.9 -799.29,-1398.3 -1.03,-332 158.06,-488.8 153,-874.2 0,-270.1 -60.31,-817.2 1.19,-817.2 h 1228.39 l 106.29,185.3 106.27,-185.3 h 1228.41 c 61.5,0 1.19,547.1 1.19,817.2 -5.08,385.4 154.03,542.2 153.01,874.2 67.57,671.4 -169.54,1308.8 -799.31,1398.3"
         style="fill:#272c52;fill-opacity:1;fill-rule:nonzero;stroke:none"
         id="path3642" />
      <path
         d="m 8806.09,30448.1 -25.51,0.4 8.18,66.2 h 41.21 c -3.45,-41.6 -10.76,-66.6 -23.88,-66.6 m -2547.19,0 c -13.11,0 -20.43,25 -23.88,66.6 h 41.22 l 8.18,-66.2 -25.52,-0.4"
         style="fill:#231f20;fill-opacity:1;fill-rule:nonzero;stroke:none"
         id="path3646" />
      <path
         d="m 8832.19,30624.7 h -8.05 c 3.22,13.2 5.37,30.9 6.67,52.2 0.62,-18 1.09,-35.5 1.38,-52.2 m -2591.33,0 h -8.05 c 0.28,16.7 0.76,34.2 1.38,52.2 1.29,-21.3 3.45,-39 6.67,-52.2"
         style="fill:#3e312d;fill-opacity:1;fill-rule:nonzero;stroke:none"
         id="path3648" />
      <path
         d="m 7670.63,30624.7 h 1164.89 c 10.74,73.5 -0.93,285.7 -8.94,431.4 -6.5,118.1 -13.22,240.3 -13.22,330.7 -2.75,209.3 40.68,352.4 82.68,490.7 36.41,119.9 70.79,233.2 70.33,383.4 -0.01,1.9 0.08,3.8 0.27,5.7 55.14,547.8 -99.76,1216.6 -710.54,1331.5 l -672.84,-1614.8 c -8.54,-20.5 -28.56,-33.9 -50.76,-33.9 -22.2,0 -42.24,13.4 -50.77,33.9 l -672.84,1614.8 c -610.77,-114.9 -765.67,-783.7 -710.55,-1331.5 0.19,-1.9 0.29,-3.8 0.28,-5.7 -0.47,-150.2 33.93,-263.5 70.34,-383.4 41.99,-138.3 85.42,-281.4 82.66,-491.4 0.01,-89.7 -6.71,-211.9 -13.21,-330 -8.01,-145.7 -19.68,-357.9 -8.94,-431.4 h 1164.89 l 90.43,157.6 c 9.8,17.1 28,27.7 47.71,27.7 19.69,0 37.9,-10.6 47.7,-27.7 l 90.43,-157.6 m 1196.55,-110 H 7638.77 c -19.7,0 -37.9,10.6 -47.7,27.7 l -58.57,102 -58.58,-102 c -9.81,-17.1 -28,-27.7 -47.71,-27.7 H 6197.82 c -18.21,0 -35.35,7.5 -48.28,21.2 -41.3,43.6 -41.58,151.4 -20.96,526.3 6.41,116.6 13.05,237.2 13.05,324.6 2.54,193.7 -38.37,328.5 -77.94,458.8 -36.95,121.7 -75.15,247.5 -75.07,412.8 -35.51,357.1 15.65,692.7 144.14,945 147.42,289.6 390.31,466.1 702.42,510.4 24.77,3.6 48.87,-10.1 58.51,-33.2 l 638.81,-1533.2 638.8,1533.2 c 9.64,23.1 33.73,36.8 58.51,33.2 312.11,-44.3 555,-220.8 702.42,-510.4 128.49,-252.3 179.65,-587.9 144.14,-945 0.07,-165.3 -38.13,-291.1 -75.07,-412.8 -39.58,-130.3 -80.48,-265.1 -77.94,-458 0,-88.2 6.63,-208.8 13.05,-325.4 20.62,-374.9 20.33,-482.7 -20.96,-526.3 -12.94,-13.7 -30.08,-21.2 -48.27,-21.2"
         style="fill:#231f20;fill-opacity:1;fill-rule:nonzero;stroke:none"
         id="path3650" />
      <path
         d="m 7492.49,30707.8 h 80 V 32096 h -80 z"
         style="fill:#231f20;fill-opacity:1;fill-rule:nonzero;stroke:none"
         id="path3652" />
      <path
         d="m 7444.97,31522.3 c 0,-33.1 -26.86,-60 -60,-60 -33.14,0 -60,26.9 -60,60 0,33.2 26.86,60 60,60 33.14,0 60,-26.8 60,-60"
         style="fill:#231f20;fill-opacity:1;fill-rule:nonzero;stroke:none"
         id="path3654" />
      <path
         d="m 7444.97,30993.7 c 0,-33.1 -26.86,-60 -60,-60 -33.14,0 -60,26.9 -60,60 0,33.1 26.86,60 60,60 33.14,0 60,-26.9 60,-60"
         style="fill:#231f20;fill-opacity:1;fill-rule:nonzero;stroke:none"
         id="path3656" />
      <path
         d="m 6485.35,31391 c -17.68,0 -20.74,-2.6 -20.74,-20.8 v -35.3 c 0,-18.2 14.38,-45.1 32.06,-45.1 h 444.44 c 17.68,0 32.05,26.9 32.05,45.1 v 35.3 c 0,18.2 -3.05,20.8 -20.72,20.8 z m 455.76,-136.1 h -444.44 c -42.93,0 -77.85,35.9 -77.85,80 l -11.32,70 c 0,44.2 34.92,31.2 77.85,31.2 h 467.09 c 42.92,0 77.84,13 77.84,-31.2 l -11.32,-70 c 0,-44.1 -34.92,-80 -77.85,-80"
         style="fill:#231f20;fill-opacity:1;fill-rule:nonzero;stroke:none"
         id="path3660" />
      <path
         d="m 8579.65,31391 c 17.67,0 20.73,-2.6 20.73,-20.8 v -35.3 c 0,-18.2 -14.38,-45.1 -32.05,-45.1 h -444.45 c -17.67,0 -32.05,26.9 -32.05,45.1 v 35.3 c 0,18.2 3.05,20.8 20.73,20.8 z m -455.77,-136.1 h 444.45 c 42.92,0 77.84,35.9 77.84,80 l 11.33,70 c 0,44.2 -34.93,31.2 -77.85,31.2 h -467.09 c -42.93,0 -77.85,13 -77.85,-31.2 l 11.33,-70 c 0,-44.1 34.92,-80 77.84,-80"
         style="fill:#231f20;fill-opacity:1;fill-rule:nonzero;stroke:none"
         id="path3664" />
      <path
         d="m 7492.49,31919.6 v 41.5 l 5.11,-5.7 3.14,-7.5 c 5,-11.7 0.12,-22.6 -8.25,-28.3"
         style="fill:#231f20;fill-opacity:1;fill-rule:nonzero;stroke:none"
         id="path3668" />
      <path
         d="m 6662.67,33468.3 c -7.91,-34 -183.45,-541.4 -183.45,-541.4 l 490.39,26.4 -140.21,-200.7 653.3,-728.2 c 19.49,-21.8 54.51,0.1 43.53,27.2 l -612.14,1507.8 -251.42,-91.1"
         style="fill:#272c52;fill-opacity:1;fill-rule:nonzero;stroke:none"
         id="path3670" />
      <path
         d="m 6970.03,32988.3 c 12.44,0 24,-6.9 30.18,-18 6.45,-11.7 5.7,-26.2 -1.91,-37.1 l -119.76,-171.4 c -2.66,-3.8 -2.35,-8.9 0.75,-12.4 l 556.96,-620.8 c 1.95,-2.2 4.68,-3.3 7.45,-3.3 1.82,0 3.65,0.5 5.29,1.5 4.12,2.6 5.79,7.7 3.97,12.2 l -555,1367.1 c -1.58,3.9 -5.31,6.2 -9.27,6.2 -1.13,0 -2.28,-0.2 -3.41,-0.6 l -189.49,-68.6 c -2.92,-1.1 -5.18,-3.4 -6.13,-6.4 -25.56,-80.4 -108.41,-321.5 -155.53,-458 -1.08,-3.1 -0.53,-6.6 1.47,-9.3 1.9,-2.5 4.86,-3.9 7.99,-3.9 l 424.15,22.7 2.29,0.1 m -166.68,-259 c -10.92,12.1 -12,30 -2.64,43.4 l 87.34,124.9 c 2.2,3.2 2.41,7.3 0.55,10.6 -1.77,3.2 -5.12,5.2 -8.74,5.2 l -398.77,-21.4 -2.02,-0.1 c -10.84,0 -21.23,5.2 -27.81,14 -7.03,9.3 -8.94,21.5 -5.13,32.5 67.14,194 176.04,511.7 182.44,537.8 2.8,11.5 11.31,21.1 22.17,25 l 251.43,91.1 c 3.86,1.4 7.86,2.1 11.92,2.1 14.32,0 27.04,-8.6 32.43,-21.8 l 625.56,-1540.9 c -8.08,-51.8 -18.5,-107.8 -25.1,-131.4 l -743.63,829"
         style="fill:#231f20;fill-opacity:1;fill-rule:nonzero;stroke:none"
         id="path3676" />
      <path
         d="m 7572.49,31919.6 c -8.36,5.7 -13.23,16.6 -8.24,28.3 l 3.15,7.5 5.09,5.6 v -41.4"
         style="fill:#231f20;fill-opacity:1;fill-rule:nonzero;stroke:none"
         id="path3680" />
      <path
         d="m 8402.33,33468.3 c 7.91,-34 183.44,-541.4 183.44,-541.4 l -490.39,26.4 140.21,-200.7 -653.3,-728.2 c -19.49,-21.8 -54.51,0.1 -43.53,27.2 l 612.15,1507.8 251.42,-91.1"
         style="fill:#272c52;fill-opacity:1;fill-rule:nonzero;stroke:none"
         id="path3684" />
      <path
         d="m 8094.96,32988.3 c -12.44,0 -23.99,-6.9 -30.18,-18 -6.45,-11.7 -5.7,-26.2 1.9,-37.1 l 119.77,-171.4 c 2.67,-3.8 2.36,-8.9 -0.75,-12.4 l -556.96,-620.8 c -1.96,-2.2 -4.68,-3.3 -7.44,-3.3 -1.83,0 -3.67,0.5 -5.3,1.5 -4.12,2.6 -5.8,7.7 -3.97,12.2 l 555,1367.1 c 1.57,3.9 5.3,6.2 9.27,6.2 1.13,0 2.28,-0.2 3.4,-0.6 l 189.5,-68.6 c 2.91,-1.1 5.18,-3.4 6.12,-6.4 25.57,-80.4 108.43,-321.5 155.53,-458 1.09,-3.1 0.54,-6.6 -1.46,-9.3 -1.9,-2.5 -4.86,-3.9 -7.99,-3.9 l -424.15,22.7 -2.29,0.1 m 166.68,-259 c 10.91,12.1 12,30 2.64,43.4 l -87.35,124.9 c -2.18,3.2 -2.4,7.3 -0.54,10.6 1.77,3.2 5.13,5.2 8.74,5.2 l 398.77,-21.4 2.02,-0.1 c 10.84,0 21.23,5.2 27.81,14 7.02,9.3 8.94,21.5 5.12,32.5 -67.14,194 -176.03,511.7 -182.43,537.8 -2.81,11.5 -11.3,21.1 -22.17,25 l -251.43,91.1 c -3.85,1.4 -7.86,2.1 -11.91,2.1 -14.32,0 -27.05,-8.6 -32.44,-21.8 l -625.56,-1540.9 c 8.08,-51.8 18.49,-107.8 25.11,-131.4 l 743.62,829"
         style="fill:#231f20;fill-opacity:1;fill-rule:nonzero;stroke:none"
         id="path3690" />
      <path
         d="m 4588.5,33392.7 c -83.24,58.2 -164.82,119.9 -239.33,188.7 -22.75,15 -43.5,29.9 -62.41,44.7 -21.22,9.2 -42.21,20.4 -62.56,33.9 -141.93,93.9 -199.28,257.2 -128.1,364.8 62.12,93.9 201.64,114.2 330.48,55.4 28.22,43.2 95.45,61.9 148.22,45.4 66.48,-20.9 114.75,-76.7 164.06,-125.9 67.12,-67 141.96,-125.3 222.2,-175.5 239.03,-149.5 126.64,-523.3 -154.89,-508.1 -72.42,3.9 -146.07,26.6 -217.67,76.6"
         style="fill:#ffd384;fill-opacity:1;fill-rule:nonzero;stroke:none"
         id="path3692" />
      <path
         d="m 5013.6,33703.8 c -17.01,29.4 -42.35,56.8 -78.29,79.3 -85.45,53.4 -163.09,114.8 -230.73,182.3 -6.26,6.2 -12.51,12.6 -18.76,19 -40.6,41.2 -78.93,80.2 -125.53,94.9 -27.64,8.6 -67.92,-1.2 -89.58,-18.5 -6.6,-5.2 -8.15,-14.6 -3.44,-21.6 20.31,-30.3 76.9,-116.1 68.67,-118.9 -11.35,-3.8 -117.9,110.5 -129.49,115.8 -108.9,49.7 -222.41,33.7 -269.88,-38.1 -25.84,-39.1 -29.59,-90.4 -10.54,-144.7 20.69,-58.9 65.07,-113.3 124.96,-152.9 17.3,-11.4 35.74,-21.4 54.81,-29.7 3.86,-1.6 7.45,-3.7 10.77,-6.3 18.2,-14.2 38.16,-28.5 59.32,-42.5 2.18,-1.5 4.25,-3.1 6.18,-4.9 63.63,-58.7 138.05,-117.3 234.22,-184.5 59.28,-41.4 124.04,-64.2 192.49,-67.9 126.03,-6.8 198.75,79.3 222.72,155 16.74,52.9 17.45,122.9 -17.9,184.2 m -951.28,57 c -11.26,19.4 -20.61,39.6 -27.88,60.4 -29.34,83.5 -21.83,165.4 21.18,230.4 68.69,103.8 215.36,137.6 358.15,86.2 45.3,38 115.15,53 175.56,34.1 69.76,-21.9 120.73,-73.8 165.7,-119.5 6.05,-6.1 12.07,-12.3 18.11,-18.3 62.5,-62.4 134.37,-119.2 213.64,-168.7 147.59,-92.3 175.28,-254.9 137.27,-375 -45.36,-143.4 -171.16,-230.8 -320.51,-222.8 -86.78,4.7 -168.48,33.4 -242.82,85.3 -98.44,68.8 -175.32,129.3 -241.61,190.2 -20.22,13.5 -39.48,27.2 -57.36,41 -22.33,10 -43.95,21.9 -64.34,35.4 -57.06,37.8 -103.53,86.6 -135.09,141.3"
         style="fill:#231f20;fill-opacity:1;fill-rule:nonzero;stroke:none"
         id="path3698" />
      <path
         d="m 6520.68,33547.9 c 1.75,8.7 -92.74,36.5 -101.55,37.2 -43.25,3.3 -83.67,2.5 -116.87,1.8 -142.69,-3.1 -268.74,1.3 -385.36,13.3 -101.18,10.4 -194.48,26.5 -285.23,49.2 -227.88,57 -472.28,99.5 -622.32,231.1 -5.76,5 -11.53,10.2 -17.53,15.5 -26.99,24.1 -59.34,53 -98.08,78.9 -23.45,15.7 -53.94,6.9 -61.01,-17.3 l -153.54,-620.8 c -12.15,-41.5 7.43,-88.7 47.87,-115.5 20.76,-13.7 42.47,-27.8 65.24,-42.2 411.68,-261 805.83,-412.4 1171.51,-450.1 h 0.02 c 52.59,-5.4 245.47,-18.7 296.83,-19.4 l 260.02,838.3"
         style="fill:#272c52;fill-opacity:1;fill-rule:nonzero;stroke:none"
         id="path3700" />
      <path
         d="m 4611.86,33355.9 153.29,619.8 0.6,2.2 c 8,27.3 28.18,48.7 55.37,58.6 28.83,10.4 61.72,6.2 88.02,-11.4 41.97,-28.1 76.37,-58.8 104.01,-83.5 l 0.61,-0.5 c 5.66,-5.1 11.12,-10 16.57,-14.7 118.69,-104.2 313.42,-150.6 501.73,-195.5 32.17,-7.7 65.42,-15.6 97.94,-23.8 88.21,-22 179.02,-37.7 277.63,-47.8 114.4,-11.8 238.25,-16.1 378.62,-13.1 38.9,0.8 87.3,1.9 140.19,-3.6 108.47,-11.2 196.51,-45.8 269.13,-105.7 73.81,-61 -11.53,-92.2 -69.18,-44.6 -55.57,45.9 -124.62,33.3 -211.1,42.2 0,0 -90.83,3.8 -126.71,3.1 -144.93,-3.1 -273.18,1.3 -392.09,13.6 -103.79,10.7 -199.58,27.2 -292.84,50.5 -31.94,8 -64.92,15.9 -96.79,23.5 -201.2,48 -409.24,97.6 -548.17,219.4 -5.68,5 -11.38,10.1 -17.28,15.4 l -0.61,0.5 c -22.5,20.1 -47.54,42.4 -76.51,63.4 l -147.19,-595.1 -0.59,-2.2 c -5.39,-18.4 5.43,-41.5 25.73,-55 20.29,-13.4 41.93,-27.4 64.31,-41.6 391.75,-248.3 766.38,-395.6 1114.11,-438.1 1.53,-0.2 94.75,-8.7 174.14,-16.3 14.39,-1.3 26.16,-11.7 29.37,-25.8 7.14,-31.4 13.15,-82.6 -24.39,-79.7 -90.29,7 -211.21,16.3 -212.67,16.5 -139.4,18.6 -282.58,52.9 -428.92,102.8 -229.51,78.3 -466.83,194.8 -709.82,348.8 -23,14.6 -45.26,29 -66.17,42.9 -59.52,39.4 -88.32,111.2 -70.34,174.8"
         style="fill:#231f20;fill-opacity:1;fill-rule:nonzero;stroke:none"
         id="path3706" />
      <path
         d="m 6201.1559,32098.293 c -15.82,-11.9 -34.25,-22.7 -53.23,-18.4 -23.91,5.3 -36.19,31.4 -43.56,54.8 -54.47,172.6 -31.83,364.5 -100.52,531.8 -112.21,273.5 -424.54,397.3 -632.71,607.1 -174.72,176.1 -276.53,422.5 -277.12,670.6 -0.41,175.4 47.75,348.4 121,507.8 40.88,88.9 91.74,176.8 169.63,236.1 86.26,65.7 196.95,89.8 304.78,101.2 118.38,12.5 246.06,9.4 345.29,-56.3 131.9,-87.4 176.1,-257 213.31,-410.8 51.61,-213.3 107.42,-428.2 185.18,-633.8 70.43,-186.1 187.13,-361.2 205.69,-563.4 35.21,-383.6 -129.11,-784.2 -433.21,-1023.2 -1.48,-1.1 -3,-2.3 -4.53,-3.5"
         style="fill:#552200;fill-opacity:1;fill-rule:nonzero;stroke:none"
         id="path3724-7" />
      <path
         d="m 9510.06,31507.3 c -3.89,-103.5 -11.78,-207.6 -29.64,-309.6 -0.35,-27.8 -1.69,-53.8 -3.9,-78.2 3.86,-23.3 5.81,-47.5 5.5,-72.4 -2.17,-173.6 -110.63,-313.1 -242.24,-311.4 -114.87,1.4 -209.4,109.9 -230.14,252.9 -52.61,0.4 -105.81,47.7 -120.75,102.1 -18.84,68.6 2.34,140.8 17.33,210.3 20.4,94.6 29.11,191 27.85,287.6 -3.77,287.6 379.02,397.7 521.49,147.8 36.65,-64.3 57.84,-140.1 54.5,-229.1"
         style="fill:#ffd384;fill-opacity:1;fill-rule:nonzero;stroke:none"
         id="path3708" />
      <path
         d="m 9008.4,31700.2 c -15.87,-30.9 -25.39,-67.7 -24.82,-111 1.35,-102.8 -8.4,-203.3 -28.95,-298.7 -1.91,-8.8 -3.91,-17.6 -5.91,-26.5 -13.01,-57.7 -25.29,-112.1 -12.09,-160.2 7.83,-28.4 38.5,-57.6 65.3,-66.6 8.16,-2.8 17.06,1.1 20.49,9 14.78,34.1 57.09,130.1 64.02,124.6 9.56,-7.7 -29.66,-162.2 -27.79,-175.1 17.53,-120.9 93.96,-209.4 181.75,-210.5 47.79,-0.6 93.94,24.6 129.95,70.9 39.16,50.3 61.24,118.4 62.15,191.6 0.26,21.2 -1.34,42.6 -4.79,63.5 -0.7,4.2 -0.89,8.4 -0.51,12.7 2.13,23.5 3.37,48.5 3.7,74.4 0.03,2.7 0.28,5.3 0.73,8 15.26,87 24.46,183.2 28.94,302.8 v 0 c 2.78,73.8 -13.39,142 -48.02,202.7 -63.78,111.9 -177.81,126.8 -256.08,105.5 -54.59,-14.9 -115.09,-53 -148.07,-117.1 m 476.55,-847.7 c -10.5,-20.4 -22.67,-39.6 -36.41,-57.2 -55.51,-71.4 -129.86,-110.1 -209.38,-109.1 -127.02,1.6 -237.07,108.7 -271.85,259.6 -57.65,17.9 -109.08,69.5 -126.18,131.8 -19.77,72 -3.43,144.3 10.98,208.2 1.93,8.5 3.86,17.1 5.7,25.6 18.99,88.1 27.99,181.1 26.74,276.5 -2.33,177.6 121.85,291.2 245.91,324.9 148.06,40.3 292.56,-19.3 368.13,-151.9 43.92,-77.1 64.43,-163 60.96,-255.5 -4.6,-122.4 -14.03,-221.8 -29.67,-312.3 -0.41,-24.8 -1.58,-48.9 -3.5,-71.9 3.74,-24.7 5.47,-49.8 5.16,-74.7 -0.87,-69.9 -17.14,-136.7 -46.59,-194"
         style="fill:#231f20;fill-opacity:1;fill-rule:nonzero;stroke:none"
         id="path3714" />
      <path
         d="m 8766.89,32414.1 0.4,-1.4 c 119.61,-360.9 41.24,-897 41.24,-897 -3.9,-41 -38.11,-170.8 42.95,-173.1 1.6,-0.1 3.16,0.1 4.71,0.5 41.01,10.5 629.95,161.1 629.95,161.1 78.65,15.4 125,100 127.09,169.1 67.19,870.1 -200.39,1700.9 -1071.29,1874.3 -11.73,2.4 -61.98,-8.2 -59.43,-19.9 l 284.38,-1113.6"
         style="fill:#272c52;fill-opacity:1;fill-rule:nonzero;stroke:none"
         id="path3716" />
      <path
         d="m 8851.46,31294.6 2.64,-0.1 c 4.01,0.1 7.98,0.6 11.81,1.6 4.55,1.1 600.36,153.4 630.9,161.2 102.76,21.1 161.2,125.1 164.35,213.4 37.01,481.2 -29.96,907.3 -193.7,1232.2 -193.3,383.5 -510.14,617.9 -941.74,696.7 -26.05,4.8 -51.08,-12.5 -55.83,-38.6 -4.76,-26.1 12.52,-51.1 38.6,-55.8 1066.28,-194.6 1094.32,-1343.3 1056.88,-1828.2 l -0.12,-2.2 c -1.56,-51.4 -35.78,-113.2 -88.36,-123.5 l -2.64,-0.6 -605.03,-154.7 c -7.74,-2 -13.98,-3.6 -19.05,-4.9 -6.33,10.5 -5.47,42.2 2.56,94 1.46,9.4 2.72,17.6 3.46,24.8 5.04,35 76.96,555.9 -43.59,918.6 -8.35,25.2 -35.52,38.8 -60.68,30.4 -25.15,-8.3 -38.77,-35.5 -30.41,-60.6 115.03,-346.1 40.29,-870.4 39.52,-875.7 l -0.29,-2.4 c -0.44,-4.6 -1.63,-12.3 -2.89,-20.4 -7.77,-50.3 -19.52,-126.2 20.37,-172.5 12.59,-14.7 35.45,-32.1 73.24,-32.7"
         style="fill:#231f20;fill-opacity:1;fill-rule:nonzero;stroke:none"
         id="path3722" />
      <path
         d="m 8850.4,32105.9 c 15.82,-11.9 34.25,-22.7 53.23,-18.4 23.91,5.3 36.19,31.4 43.56,54.8 54.47,172.6 31.83,364.5 100.52,531.8 112.21,273.5 424.54,397.3 632.71,607.1 174.72,176.1 276.53,422.5 277.12,670.6 0.41,175.4 -47.75,348.4 -121,507.8 -40.88,88.9 -91.74,176.8 -169.63,236.1 -86.26,65.7 -196.95,89.8 -304.78,101.2 -118.38,12.5 -246.06,9.4 -345.29,-56.3 -131.9,-87.4 -176.1,-257 -213.31,-410.8 -51.61,-213.3 -107.42,-428.2 -185.18,-633.8 -70.43,-186.1 -187.13,-361.2 -205.69,-563.4 -35.21,-383.6 129.11,-784.2 433.21,-1023.2 1.48,-1.1 3,-2.3 4.53,-3.5"
         style="fill:#552200;fill-opacity:1;fill-rule:nonzero;stroke:none"
         id="path3724" />
      <path
         d="m 9734.31,34564.7 c 27.51,-40.7 49,-83.6 66.45,-121.6 78.26,-170.2 117.75,-335.5 117.39,-491.2 -0.56,-239 -97.4,-473.3 -265.7,-643 -71.51,-72.1 -158.2,-135.5 -242.06,-196.9 -158.5,-116 -322.4,-236 -399.11,-422.9 -39.41,-96 -50.28,-198.7 -60.79,-297.9 -8.81,-83.3 -17.13,-161.9 -40.86,-237 -7.75,-24.6 -14.61,-28.3 -14.67,-28.3 -0.08,0 -5.22,-0.3 -20.84,11.5 h -0.03 c -1.33,1 -2.62,2 -3.9,3 -85.91,67.5 -160.82,149.4 -222.72,240.9 -145.94,215.7 -219.69,485.2 -195.6,747.7 12.05,131.3 67.33,250 125.86,375.6 26.85,57.6 54.61,117.2 77.45,177.5 74.03,195.7 128.15,396.7 186.62,638.4 32.98,136.3 74.01,305.9 196.79,387.2 74.34,49.3 175.84,65.2 319.41,50 130.37,-13.7 218.28,-42.5 285.05,-93.4 36.36,-27.7 66.3,-62.7 91.26,-99.6 M 8580.99,32338.2 c 67.3,-99.5 148.42,-187.3 240.54,-259.7 1.72,-1.4 3.44,-2.7 5.2,-4 19.57,-14.8 49.71,-33.4 85.47,-25.5 33.43,7.5 57.85,34.9 72.55,81.5 26.1,82.7 35.23,168.9 44.07,252.4 10.38,98 20.19,190.7 55.32,276.3 68.27,166.4 216.18,274.6 372.78,389.2 86.3,63.2 175.56,128.6 251.45,205 182.77,184.3 287.94,438.8 288.55,698.3 0.39,167.2 -41.53,343.6 -124.6,524.3 -37.11,80.8 -91.28,182.3 -181.55,251 -102.25,77.9 -234.17,99.6 -324.52,109.1 -102.43,10.8 -252.34,16 -371.16,-62.7 -148.56,-98.4 -193.62,-284.7 -229.83,-434.3 -57.79,-238.9 -111.15,-437.3 -183.75,-629.1 -21.8,-57.6 -48.93,-115.9 -75.16,-172.2 -58.81,-126.2 -119.62,-256.6 -132.91,-401.6 -17.97,-195.8 13.94,-398 92.27,-584.7 31.71,-75.5 70.43,-147 115.28,-213.3"
         style="fill:#231f20;fill-opacity:1;fill-rule:nonzero;stroke:none"
         id="path3730" />
      <path
         d="m 9717.75,34553.5 c 28.71,-42.4 50.76,-88.1 64.84,-118.7 77.04,-167.6 115.93,-330.1 115.56,-482.9 -0.55,-233.7 -95.27,-463 -259.9,-628.9 -70.42,-71 -156.46,-134 -239.66,-194.9 -160.75,-117.6 -326.97,-239.3 -405.81,-431.4 -40.5,-98.7 -51.52,-202.8 -62.18,-303.4 -8.7,-82.3 -16.92,-159.9 -40.03,-233.1 -0.99,-3.1 -1.93,-5.8 -2.82,-8 l -1.6,1.1 -0.2,0.2 -3.44,2.7 c -83.01,65.2 -156.52,144.7 -218.48,236.3 -145.31,214.8 -215.37,482.6 -192.24,734.7 11.73,127.8 66.3,244.9 124.07,368.9 27,57.9 54.89,117.8 78.02,178.9 74.42,196.6 128.72,398.4 187.37,640.8 32.15,132.9 72.16,298.3 188.38,375.3 70.25,46.5 167.58,61.4 306.28,46.7 126.5,-13.3 211.33,-40.9 275.02,-89.4 31.36,-23.9 59.76,-54.9 86.82,-94.9 m -835.57,-2412.4 h -0.11 0.11 m 12.78,-35.2 c 2.88,0 5.74,0.6 8.39,1.8 9.78,4.5 18.31,18.1 25.36,40.4 24.32,77.1 32.75,156.7 41.67,240.9 10.36,97.9 21.08,199.1 59.4,292.5 74.57,181.7 236.16,300 392.43,414.4 84.45,61.8 171.79,125.7 244.44,198.9 171.97,173.4 270.93,412.8 271.5,657 0.37,158.7 -39.74,326.8 -119.21,499.7 -14.68,31.9 -37.7,79.5 -68.05,124.4 -29.54,43.7 -60.85,77.8 -95.72,104.4 -69.86,53.2 -160.86,83.2 -295.07,97.3 -148.44,15.7 -254.13,-1.2 -332.56,-53.2 -129.32,-85.7 -171.38,-259.5 -205.17,-399.2 -58.29,-240.9 -112.23,-441.3 -185.9,-636 -22.6,-59.7 -50.18,-118.9 -76.87,-176.2 -59.28,-127.2 -115.28,-247.4 -127.64,-382.2 -23.97,-261.1 48.55,-538.4 198.94,-760.7 64.27,-95 140.63,-177.6 226.93,-245.4 l 4.17,-3.3 0.41,-0.2 c 13.47,-10.2 23.57,-15 31.77,-15.3 h 0.78 m 365.91,2716.3 c 37.3,0 72.49,-2.8 103.29,-6 87.94,-9.3 216.22,-30.3 314.49,-105.1 86.74,-66.1 139.36,-164.8 175.49,-243.4 81.86,-178.1 123.16,-351.6 122.77,-515.9 -0.59,-254.4 -103.64,-503.7 -282.73,-684.3 -74.79,-75.4 -163.39,-140.2 -249.08,-202.9 -158.95,-116.4 -309.05,-226.2 -379.45,-397.8 -36.23,-88.3 -46.19,-182.3 -56.72,-281.8 -8.73,-82.5 -17.76,-167.7 -43.26,-248.5 -12.4,-39.3 -31.85,-62.2 -57.83,-68 -27.39,-6.1 -51.29,8.5 -69.07,21.9 -1.68,1.3 -3.3,2.5 -4.88,3.8 -90.26,70.9 -169.78,156.8 -236.34,255.2 -44.24,65.4 -82.39,136 -113.39,209.9 -77.08,183.6 -108.48,382.5 -90.81,575.1 12.99,141.5 73.04,270.3 131.12,395 26.41,56.7 53.68,115.2 75.74,173.5 72.97,192.8 126.53,391.9 184.48,631.5 35.39,146.2 79.43,328.3 221.44,422.3 78.29,51.9 171.71,65.5 254.74,65.5 m -365.67,-2795 c 6.87,0 14.01,0.7 21.35,2.3 40.9,9.1 70.26,41.1 87.27,94.9 26.71,84.7 35.95,171.9 44.88,256.4 10.23,96.6 19.89,187.8 53.95,270.8 66.13,161.1 211.8,267.8 366.04,380.7 86.97,63.6 176.8443,129.426 253.89,207.1 186.4043,187.926 293.72,447.5 294.32,712.2 0.4,170.2 -42.12,349.4 -126.41,532.8 -38.09,82.8 -93.82,187.1 -187.6,258.5 -106.26,81 -241.82,103.3 -334.54,113 -105.5,11.2 -260.11,16.4 -384.31,-65.8 -155.1,-102.8 -201.2,-293.3 -238.23,-446.3 -57.6,-238.2 -110.77,-435.9 -183.01,-626.7 -21.53,-56.9 -48.49,-114.8 -74.56,-170.8 -59.55,-127.8 -121.1,-259.9 -134.72,-408.3 -18.26,-199.1 14.15,-404.6 93.75,-594.2 32.02,-76.3 71.43,-149.3 117.15,-216.8 l 16.57,11.2 -16.57,-11.2 c 68.88,-101.9 151.23,-190.8 244.76,-264.3 1.83,-1.4 3.67,-2.8 5.55,-4.2 11.1,-8.4 41.55,-31.3 80.47,-31.3"
         style="fill:#231f20;fill-opacity:1;fill-rule:nonzero;stroke:none"
         id="path3732"
         sodipodi:nodetypes="cccccccccccscccccccccccccccccccscscccccccscccccccccccccsccccsccsccccccccccscccccccccccccccc" />
      <path
         d="m 9626.86,34771.7 c -210.03,-7.9 -412.33,363.2 -392.73,646 19.6,282.9 253.69,370.3 463.71,378.2 210.02,7.8 334.06,-210.9 314.46,-493.7 -19.63,-282.9 -175.42,-522.6 -385.44,-530.5"
         style="fill:#ffd384;fill-opacity:1;fill-rule:nonzero;stroke:none"
         id="path3740" />
      <path
         d="m 9623.91,34812.4 c -29.42,-1.1 -62.09,11.2 -97.14,36.4 -142.21,102.5 -250.38,362.1 -236.17,566.9 1.91,27.7 6.12,54.2 12.49,78.8 55.97,215.8 273.19,255.9 397.69,260.6 43.45,1.6 83.34,-10.4 118.57,-35.8 47.34,-34.1 84.02,-89.4 107.69,-158.7 24.87,-72.8 35.36,-161.1 28.75,-256.4 -3.44,-49.8 -11.35,-98.8 -23.51,-145.6 -52.42,-202.1 -176.34,-341.2 -308.37,-346.2 m 317.48,103 c 72.01,102.5 117.21,239.1 127.31,384.7 14.7,211.6 -48.7,389.9 -169.47,477 -58,41.8 -128.67,62.4 -204.33,59.5 -126.98,-4.7 -430.17,-46.1 -502.78,-325.9 -7.39,-28.5 -12.25,-59.1 -14.46,-90.9 -6.49,-93.7 9.99,-196.3 43.02,-293 47.51,-139.1 129.3,-265.9 226.2,-335.7 58.65,-42.3 120.19,-62.5 182.92,-60.2 120.54,4.5 231.2,70 311.59,184.5"
         style="fill:#231f20;fill-opacity:1;fill-rule:nonzero;stroke:none"
         id="path3744" />
      <path
         d="m 5438.14,34771.7 c 210.02,-7.9 412.33,363.2 392.73,646 -19.61,282.9 -253.7,370.3 -463.72,378.2 -210.02,7.8 -334.03,-210.9 -314.43,-493.7 19.6,-282.9 175.39,-522.6 385.42,-530.5"
         style="fill:#ffd384;fill-opacity:1;fill-rule:nonzero;stroke:none"
         id="path3746" />
      <path
         d="m 5317.2459,34557.093 c -27.51,-40.7 -49,-83.6 -66.45,-121.6 -78.26,-170.2 -117.75,-335.5 -117.39,-491.2 0.56,-239 97.4,-473.3 265.7,-643 71.51,-72.1 158.2,-135.5 242.06,-196.9 158.5,-116 322.4,-236 399.11,-422.9 39.41,-96 50.28,-198.7 60.79,-297.9 8.81,-83.3 17.13,-161.9 40.86,-237 7.75,-24.6 14.61,-28.3 14.67,-28.3 0.08,0 5.22,-0.3 20.84,11.5 h 0.03 c 1.33,1 2.62,2 3.9,3 85.91,67.5 160.82,149.4 222.72,240.9 145.94,215.7 219.69,485.2 195.6,747.7 -12.05,131.3 -67.33,250 -125.86,375.6 -26.85,57.6 -54.61,117.2 -77.45,177.5 -74.03,195.7 -128.15,396.7 -186.62,638.4 -32.98,136.3 -74.01,305.9 -196.79,387.2 -74.34,49.3 -175.84,65.2 -319.41,50 -130.37,-13.7 -218.28,-42.5 -285.05,-93.4 -36.36,-27.7 -66.3,-62.7 -91.26,-99.6 m 1153.32,-2226.5 c -67.3,-99.5 -148.42,-187.3 -240.54,-259.7 -1.72,-1.4 -3.44,-2.7 -5.2,-4 -19.57,-14.8 -49.71,-33.4 -85.47,-25.5 -33.43,7.5 -57.85,34.9 -72.55,81.5 -26.1,82.7 -35.23,168.9 -44.07,252.4 -10.38,98 -20.19,190.7 -55.32,276.3 -68.27,166.4 -216.18,274.6 -372.78,389.2 -86.3,63.2 -175.56,128.6 -251.45,205 -182.77,184.3 -287.94,438.8 -288.55,698.3 -0.39,167.2 41.53,343.6 124.6,524.3 37.11,80.8 91.28,182.3 181.55,251 102.25,77.9 234.17,99.6 324.52,109.1 102.43,10.8 252.34,16 371.16,-62.7 148.56,-98.4 193.62,-284.7 229.83,-434.3 57.79,-238.9 111.15,-437.3 183.75,-629.1 21.8,-57.6 48.93,-115.9 75.16,-172.2 58.81,-126.2 119.62,-256.6 132.91,-401.6 17.97,-195.8 -13.94,-398 -92.27,-584.7 -31.71,-75.5 -70.43,-147 -115.28,-213.3"
         style="fill:#231f20;fill-opacity:1;fill-rule:nonzero;stroke:none"
         id="path3730-6" />
      <path
         d="m 5441.08,34812.4 c 29.41,-1.1 62.09,11.2 97.14,36.4 142.21,102.5 250.38,362.1 236.17,566.9 -1.91,27.7 -6.12,54.2 -12.49,78.8 -55.97,215.8 -273.19,255.9 -397.68,260.6 -43.45,1.6 -83.35,-10.4 -118.58,-35.8 -47.34,-34.1 -84.01,-89.4 -107.69,-158.7 -24.87,-72.8 -35.37,-161.1 -28.75,-256.4 3.44,-49.8 11.35,-98.8 23.51,-145.6 52.42,-202.1 176.34,-341.2 308.37,-346.2 m -317.48,103 c -72.03,102.5 -117.25,239.1 -127.35,384.7 -14.67,211.6 48.7,389.9 169.53,477 57.98,41.8 128.64,62.4 204.31,59.5 126.98,-4.7 430.18,-46.1 502.79,-325.9 7.39,-28.5 12.24,-59.1 14.45,-90.9 6.49,-93.7 -9.98,-196.3 -43.01,-293 -47.52,-139.1 -129.31,-265.9 -226.21,-335.7 -58.65,-42.3 -120.18,-62.5 -182.92,-60.2 -120.54,4.5 -231.2,70 -311.59,184.5"
         style="fill:#231f20;fill-opacity:1;fill-rule:nonzero;stroke:none"
         id="path3750" />
      <path
         d="m 5333.8059,34545.893 c -28.71,-42.4 -50.76,-88.1 -64.84,-118.7 -77.04,-167.6 -115.93,-330.1 -115.56,-482.9 0.55,-233.7 95.27,-463 259.9,-628.9 70.42,-71 156.46,-134 239.66,-194.9 160.75,-117.6 326.97,-239.3 405.81,-431.4 40.5,-98.7 51.52,-202.8 62.18,-303.4 8.7,-82.3 16.92,-159.9 40.03,-233.1 0.99,-3.1 1.93,-5.8 2.82,-8 l 1.6,1.1 0.2,0.2 3.44,2.7 c 83.01,65.2 156.52,144.7 218.48,236.3 145.31,214.8 215.37,482.6 192.24,734.7 -11.73,127.8 -66.3,244.9 -124.07,368.9 -27,57.9 -54.89,117.8 -78.02,178.9 -74.42,196.6 -128.72,398.4 -187.37,640.8 -32.15,132.9 -72.16,298.3 -188.38,375.3 -70.25,46.5 -167.58,61.4 -306.28,46.7 -126.5,-13.3 -211.33,-40.9 -275.02,-89.4 -31.36,-23.9 -59.76,-54.9 -86.82,-94.9 m 835.57,-2412.4 h 0.11 -0.11 m -12.78,-35.2 c -2.88,0 -5.74,0.6 -8.39,1.8 -9.78,4.5 -18.31,18.1 -25.36,40.4 -24.32,77.1 -32.75,156.7 -41.67,240.9 -10.36,97.9 -21.08,199.1 -59.4,292.5 -74.57,181.7 -236.16,300 -392.43,414.4 -84.45,61.8 -171.79,125.7 -244.44,198.9 -171.97,173.4 -270.93,412.8 -271.5,657 -0.37,158.7 39.74,326.8 119.21,499.7 14.68,31.9 37.7,79.5 68.05,124.4 29.54,43.7 60.85,77.8 95.72,104.4 69.86,53.2 160.86,83.2 295.07,97.3 148.44,15.7 254.13,-1.2 332.56,-53.2 129.32,-85.7 171.38,-259.5 205.17,-399.2 58.29,-240.9 112.23,-441.3 185.9,-636 22.6,-59.7 50.18,-118.9 76.87,-176.2 59.28,-127.2 115.28,-247.4 127.64,-382.2 23.97,-261.1 -48.55,-538.4 -198.94,-760.7 -64.27,-95 -140.63,-177.6 -226.93,-245.4 l -4.17,-3.3 -0.41,-0.2 c -13.47,-10.2 -23.57,-15 -31.77,-15.3 h -0.78 m -365.91,2716.3 c -37.3,0 -72.49,-2.8 -103.29,-6 -87.94,-9.3 -216.22,-30.3 -314.49,-105.1 -86.74,-66.1 -139.36,-164.8 -175.49,-243.4 -81.86,-178.1 -123.16,-351.6 -122.77,-515.9 0.59,-254.4 103.64,-503.7 282.73,-684.3 74.79,-75.4 163.39,-140.2 249.08,-202.9 158.95,-116.4 309.05,-226.2 379.45,-397.8 36.23,-88.3 46.19,-182.3 56.72,-281.8 8.73,-82.5 17.76,-167.7 43.26,-248.5 12.4,-39.3 31.85,-62.2 57.83,-68 27.39,-6.1 51.29,8.5 69.07,21.9 1.68,1.3 3.3,2.5 4.88,3.8 90.26,70.9 169.78,156.8 236.34,255.2 44.24,65.4 82.39,136 113.39,209.9 77.08,183.6 108.48,382.5 90.81,575.1 -12.99,141.5 -73.04,270.3 -131.12,395 -26.41,56.7 -53.68,115.2 -75.74,173.5 -72.97,192.8 -126.53,391.9 -184.48,631.5 -35.39,146.2 -79.43,328.3 -221.44,422.3 -78.29,51.9 -171.71,65.5 -254.74,65.5 m 365.67,-2795 c -6.87,0 -14.01,0.7 -21.35,2.3 -40.9,9.1 -70.26,41.1 -87.27,94.9 -26.71,84.7 -35.95,171.9 -44.88,256.4 -10.23,96.6 -19.89,187.8 -53.95,270.8 -66.13,161.1 -211.8,267.8 -366.04,380.7 -86.97,63.6 -176.844,129.426 -253.89,207.1 -186.404,187.926 -293.72,447.5 -294.32,712.2 -0.4,170.2 42.12,349.4 126.41,532.8 38.09,82.8 93.82,187.1 187.6,258.5 106.26,81 241.82,103.3 334.54,113 105.5,11.2 260.11,16.4 384.31,-65.8 155.1,-102.8 201.2,-293.3 238.23,-446.3 57.6,-238.2 110.77,-435.9 183.01,-626.7 21.53,-56.9 48.49,-114.8 74.56,-170.8 59.55,-127.8 121.1,-259.9 134.72,-408.3 18.26,-199.1 -14.15,-404.6 -93.75,-594.2 -32.02,-76.3 -71.43,-149.3 -117.15,-216.8 l -16.57,11.2 16.57,-11.2 c -68.88,-101.9 -151.23,-190.8 -244.76,-264.3 -1.83,-1.4 -3.67,-2.8 -5.55,-4.2 -11.1,-8.4 -41.55,-31.3 -80.47,-31.3"
         style="fill:#231f20;fill-opacity:1;fill-rule:nonzero;stroke:none"
         id="path3732-2"
         sodipodi:nodetypes="cccccccccccscccccccccccccccccccscscccccccscccccccccccccsccccsccsccccccccccscccccccccccccccc" />
      <path
         d="m 8366.05,37480.8 c -262.9,124.4 -553.2,178.8 -842.54,169.1 -289.34,9.7 -579.63,-44.7 -842.53,-169.1 -855.57,-404.9 -1249.46,-761.1 -1180.96,-1568.7 8.2,-96.6 7.89,-193.7 0.16,-290.4 -69.26,-865.5 324.58,-1750.6 1180.8,-2155.9 262.9,-124.4 553.19,-178.9 842.53,-169.1 289.34,-9.8 579.64,44.7 842.54,169.1 856.23,405.3 1250.07,1290.4 1180.8,2155.9 -7.73,96.7 -8.03,193.8 0.16,290.4 68.5,807.6 -325.39,1163.8 -1180.96,1568.7"
         style="fill:#ffd384;fill-opacity:1;fill-rule:nonzero;stroke:none"
         id="path3752" />
      <path
         d="m 7525.56,33360.5 c 21,-0.7 42.25,-1.1 63.22,-1.1 264.14,0 523.78,56.8 750.85,164.3 768.05,363.5 1217.39,1185 1144.75,2092.9 -8.17,102 -8.1,203.3 0.19,301 66.8,787.6 -315.96,1113 -1144.94,1505.3 -227.1,107.5 -486.46,164.3 -750.03,164.3 -21.23,0 -42.77,-0.3 -64.05,-1.1 l -2.04,-0.1 -2.03,0.1 c -20.94,0.7 -42.16,1.1 -63.09,1.1 -264.21,0 -523.91,-56.8 -750.99,-164.3 -828.98,-392.3 -1211.75,-717.7 -1144.95,-1505.3 8.31,-97.7 8.38,-199 0.19,-301 -72.64,-907.9 376.71,-1729.4 1144.75,-2092.9 227.06,-107.5 486.88,-164.3 751.4,-164.3 20.75,0 41.83,0.4 62.65,1.1 l 2.07,0.1 2.05,-0.1 m 62.75,-128.7 c -20.53,0 -41.85,0.3 -63.38,1 h -2.85 c -20.74,-0.7 -41.83,-1 -62.67,-1 -283.06,0 -561.36,60.9 -804.84,176.1 -816.18,386.3 -1293.83,1257.3 -1216.86,2219 7.6,95 7.56,189.1 -0.13,279.7 -34.97,412.3 47.37,724.4 259.14,982.2 185,225.3 471.46,419.6 957.84,649.8 243.44,115.3 521.86,176.2 805.19,176.2 20.69,0 41.67,-0.4 62.37,-1 h 2.85 c 20.64,0.6 41.62,1 62.31,1 283.3,0 561.73,-60.9 805.18,-176.2 486.38,-230.1 772.84,-424.5 957.85,-649.8 211.76,-257.8 294.1,-569.9 259.14,-982.2 -7.68,-90.6 -7.72,-184.7 -0.15,-279.7 76.97,-961.7 -400.67,-1832.7 -1216.84,-2219 -243.46,-115.2 -521.53,-176.1 -804.15,-176.1"
         style="fill:#231f20;fill-opacity:1;fill-rule:nonzero;stroke:none"
         id="path3760" />
      <path
         d="m 9747.29,36237.8 c -0.29,10.9 -0.74,21.8 -1.27,32.7 10.72,176.8 -13.57,359.6 -72.15,537.4 -75.3,228.6 -205.11,444 -375.39,623.1 -320.03,336.5 -788.17,567 -1318.16,649.2 -149.31,23.1 -299.28,33.6 -447.82,32.1 -148.55,1.5 -298.52,-9 -447.83,-32.1 -529.99,-82.2 -998.13,-312.7 -1318.16,-649.2 -170.27,-179.1 -300.08,-394.5 -375.39,-623.1 -58.58,-177.8 -82.87,-360.6 -72.15,-537.4 -0.53,-10.9 -0.98,-21.8 -1.27,-32.7 -2.27,-84.1 -5.38,-199.3 32.33,-294.7 20.24,-51.2 62.89,-91.6 116.99,-111 20.8,-7.4 42.52,-11.4 64.3,-12.1 34.87,-1.1 1146.19,316.8 1583.98,559.5 78.08,43.3 151.83,84.2 225.23,123.4 44.59,23.9 108.96,57.6 191.97,100.5 82.99,-42.9 147.39,-76.6 191.98,-100.5 73.39,-39.2 147.14,-80.1 225.21,-123.4 437.8,-242.7 1549.11,-560.6 1583.99,-559.5 21.77,0.7 43.49,4.7 64.29,12.1 54.1,19.4 96.74,59.8 117,111 37.71,95.4 34.59,210.6 32.32,294.7"
         style="fill:#552200;fill-opacity:1;fill-rule:nonzero;stroke:none"
         id="path3762" />
      <path
         d="m 9750.58,36272.5 c -0.35,0 -1.56,1.9 -3.51,5.3 0.76,16.8 1.19,33.6 1.33,50.5 -0.2,-16.2 -0.74,-32.9 -1.79,-49.7 -0.04,0.1 -0.07,0.2 -0.11,0.2 9.47,174.2 -14.97,354.1 -72.63,529.1 -75.3,228.6 -205.11,444 -375.39,623.1 -320.03,336.5 -788.17,567 -1318.16,649.2 -140.11,21.7 -280.83,32.2 -420.38,32.2 -9.16,0 -18.3,0 -27.44,-0.1 -9.14,0.1 -18.3,0.1 -27.45,0.1 -139.56,0 -280.26,-10.5 -420.38,-32.2 -529.99,-82.2 -998.13,-312.7 -1318.16,-649.2 -170.27,-179.1 -300.08,-394.5 -375.39,-623.1 -55.52,-168.5 -80.24,-341.5 -73.54,-509.7 -0.06,-0.1 -0.12,-0.2 -0.18,-0.3 -0.42,10.3 -0.67,20.5 -0.8,30.5 0.08,-10.3 0.28,-20.6 0.59,-31 -8.08,-15.8 -13.11,-24.9 -13.88,-24.9 -0.08,0 -0.12,0.1 -0.11,0.3 -10.73,176.8 13.57,359.7 72.15,537.5 75.3,228.5 205.11,444 375.39,623 320.03,336.5 788.17,567.1 1318.16,649.2 140.17,21.7 280.92,32.3 420.53,32.3 9.1,0 18.2,-0.1 27.29,-0.2 0.91,0 1.82,0 2.72,0 0.91,0 1.82,0 2.73,0 1.58,0 3.18,0 4.77,0 1.58,0 3.17,0 4.77,0 0.91,0 1.82,0 2.72,0 0.91,0 1.82,0 2.73,0 9.1,0.1 18.19,0.2 27.3,0.2 139.59,0 280.37,-10.6 420.53,-32.3 529.99,-82.1 998.12,-312.7 1318.16,-649.2 170.27,-179 300.07,-394.5 375.39,-623 58.58,-177.8 82.87,-360.7 72.14,-537.5 0.01,-0.2 -0.02,-0.3 -0.1,-0.3"
         style="fill:#ffffff;fill-opacity:1;fill-rule:nonzero;stroke:none"
         id="path3764" />
      <path
         d="m 9604.75,35828.3 c 0.08,2.2 0.16,4.3 0.24,6.5 50.76,20.2 90.6,59.4 109.98,108.3 27.3,69.1 33.2,148.5 33.52,219 0.31,-73.5 -4.59,-158.4 -33.52,-231.5 -16.9,-42.7 -49.37,-78 -91.07,-99.7 -6.24,-0.8 -12.63,-1.6 -19.15,-2.6 m -4162.55,2.5 c -0.37,0 -0.74,0.1 -1.11,0.1 -41.7,21.7 -74.18,57 -91.06,99.7 -28.94,73.1 -33.84,158 -33.53,231.5 0.32,-70.5 6.22,-149.9 33.53,-219 16.96,-42.9 49.67,-78.2 91.65,-100 0.19,-4.1 0.36,-8.2 0.52,-12.3"
         style="fill:#bdbbbc;fill-opacity:1;fill-rule:nonzero;stroke:none"
         id="path3768" />
      <path
         d="m 9604.53,35822.1 c 0.07,2.1 0.14,4.2 0.22,6.2 6.52,1 12.91,1.8 19.15,2.6 -6.25,-3.2 -12.72,-6.2 -19.37,-8.8"
         style="fill:#231f20;fill-opacity:1;fill-rule:nonzero;stroke:none"
         id="path3770" />
      <path
         d="m 5442.21,35830.3 c -0.37,0.2 -0.74,0.4 -1.12,0.6 0.37,0 0.74,-0.1 1.11,-0.1 0,-0.2 0.01,-0.3 0.01,-0.5"
         style="fill:#231f20;fill-opacity:1;fill-rule:nonzero;stroke:none"
         id="path3772" />
      <path
         d="m 9533.49,35686.6 c -4.48,0 -23.35,4.2 -53.91,12.2 -1.66,44.8 -1.7,89.4 -0.13,133.4 30.63,-7.9 49.55,-12.2 54.04,-12.2 0.07,0 0.13,0 0.19,0 21.77,0.7 43.49,4.7 64.29,12.1 2.36,0.9 4.7,1.8 7.02,2.7 -0.08,-2.2 -0.16,-4.3 -0.24,-6.5 -0.08,-2 -0.15,-4.1 -0.22,-6.2 -2.17,-0.9 -4.35,-1.7 -6.56,-2.5 -20.8,-7.4 -42.52,-132.3 -64.29,-133 -0.06,0 -0.12,0 -0.19,0 m -4001.98,0 c -0.06,0 -0.13,0 -0.19,0 -21.78,0.7 -43.5,125.6 -64.3,133 -8.57,3.1 -16.85,6.7 -24.81,10.7 0,0.2 -0.01,0.3 -0.01,0.5 -0.16,4.1 -0.33,8.2 -0.52,12.3 8.12,-4.1 16.58,-7.8 25.34,-11 20.8,-7.4 42.52,-11.4 64.3,-12.1 0.06,0 0.13,0 0.19,0 3.53,0 16.05,2.6 36.23,7.7 1.46,-44.1 1.31,-88.7 -0.46,-133.5 -19.9,-5 -32.27,-7.6 -35.77,-7.6"
         style="fill:#231f20;fill-opacity:1;fill-rule:nonzero;stroke:none"
         id="path3776" />
      <path
         d="m 9746.35,36263.5 c -0.1,2.2 -0.21,4.4 -0.31,6.6 0.2,2.9 0.39,5.7 0.57,8.5 0.16,-0.3 0.31,-0.5 0.46,-0.8 -0.22,-4.7 -0.46,-9.5 -0.72,-14.3 m -4427.7,0 c -0.64,11.3 -1.12,22.6 -1.46,33.9 0.07,0.2 0.14,0.3 0.21,0.5 0.38,-9.2 0.88,-18.4 1.56,-27.7 -0.11,-2.2 -0.21,-4.4 -0.31,-6.7"
         style="fill:#bdbbbc;fill-opacity:1;fill-rule:nonzero;stroke:none"
         id="path3778" />
      <path
         d="m 9747.07,36277.8 c -0.15,0.3 -0.3,0.5 -0.46,0.8 1.05,16.8 1.59,33.5 1.79,49.7 -0.14,-16.9 -0.57,-33.7 -1.33,-50.5 m -4429.88,19.6 c -0.31,10.4 -0.51,20.7 -0.59,31 0.13,-10 0.38,-20.2 0.8,-30.5 -0.07,-0.2 -0.14,-0.3 -0.21,-0.5"
         style="fill:#bdbbbc;fill-opacity:1;fill-rule:nonzero;stroke:none"
         id="path3782" />
      <path
         d="m 7532.5,36655.8 c 8.26,0 16.52,-1.9 24.07,-5.9 83.03,-42.9 147.83,-76.8 192.59,-100.8 73.65,-39.3 147.46,-80.2 225.61,-123.6 419.98,-232.9 1483.02,-538.4 1560.94,-553 15.32,0.8 30.31,3.9 44.62,9 39.91,14.2 71.22,43.7 85.93,80.9 33.77,85.4 30.82,194.4 28.67,274 v 0 c -0.28,10.5 -0.72,21 -1.22,31.6 -0.1,1.9 -0.09,3.8 0.03,5.7 10.43,171.8 -13,346 -69.61,517.8 -72.91,221.3 -198.64,429.9 -363.6,603.4 -312.11,328.2 -769.61,553.2 -1288.23,633.5 -144.32,22.4 -292.14,33.1 -439.28,31.5 h -1.04 c -147.19,1.6 -294.96,-9.1 -439.28,-31.5 -518.63,-80.3 -976.13,-305.3 -1288.24,-633.5 -164.96,-173.5 -290.69,-382.1 -363.6,-603.4 -56.61,-171.8 -80.03,-346 -69.6,-517.8 0.11,-1.9 0.12,-3.8 0.03,-5.7 -0.51,-10.6 -0.94,-21.1 -1.23,-31.6 -2.14,-79.6 -5.09,-188.7 28.68,-274 14.7,-37.2 46.01,-66.7 85.9,-80.9 14.33,-5.1 29.32,-8.2 44.64,-9 77.93,14.6 1140.97,320.1 1560.62,552.9 78.21,43.3 152.07,84.3 225.94,123.7 44.75,24 109.55,57.9 192.58,100.8 7.55,4 15.81,5.9 24.08,5.9 z m 2000.16,-783.4 -0.57,-0.1 z m -4000.33,0 0.57,-0.1 z m 4002.38,-104.8 c -39.82,0 -391.14,104 -658.15,190.9 -304.48,99.1 -716.85,244.7 -952.26,375.2 -78.11,43.3 -151.58,84.1 -224.51,123 -39.95,21.4 -96.15,50.9 -167.29,87.7 -71.15,-36.8 -127.34,-66.3 -167.29,-87.6 -73.15,-39.1 -146.67,-79.9 -224.51,-123.1 -235.41,-130.5 -647.78,-276.1 -952.27,-375.2 -266.99,-86.9 -618.29,-190.9 -658.15,-190.9 h -0.63 c -27.51,0.9 -54.52,6 -80.26,15.2 -68.29,24.4 -122.27,75.8 -148.07,141.1 -41.65,105.2 -38.37,226.6 -35.98,315.3 0.28,10.3 0.7,20.7 1.18,31 -10.8,184.2 14.38,370.6 74.85,554.1 77.73,235.9 211.61,458.2 387.19,642.8 327.96,344.8 806.72,580.9 1348.09,664.8 149.78,23.2 303.15,34.4 455.85,32.8 152.73,1.6 306.07,-9.5 455.84,-32.8 541.37,-83.8 1020.13,-320 1348.1,-664.8 175.57,-184.6 309.46,-406.9 387.18,-642.8 60.48,-183.5 85.65,-369.9 74.85,-554.1 0.49,-10.3 0.91,-20.7 1.18,-31 2.4,-88.6 5.68,-210 -35.97,-315.3 -25.81,-65.3 -79.8,-116.7 -148.1,-141.1 -25.72,-9.2 -52.72,-14.3 -80.24,-15.2 h -0.63"
         style="fill:#231f20;fill-opacity:1;fill-rule:nonzero;stroke:none"
         id="path3784" />
      <path
         d="m 7532.5,33783.4 c -308.58,0 -550.29,169.6 -550.29,386.1 0,35.4 1100.58,35.4 1100.58,0 0,-216.5 -241.73,-386.1 -550.29,-386.1"
         style="fill:#231f20;fill-opacity:1;fill-rule:nonzero;stroke:none"
         id="path3786" />
      <path
         d="m 6235.88,35847.9 c 7.58,-1.1 15.29,-0.5 22.66,1.6 79.78,22.7 188.34,34.8 306.26,24.5 116.06,-10.1 219.39,-40.2 293.77,-75.6 7.27,-3.4 15.13,-5.4 23.18,-5.4 58.42,0.2 94.2,9.4 96.56,36.4 5.54,63.3 -177.93,165.7 -413.51,186.3 -235.57,20.6 -434.04,-48.4 -439.58,-111.7 -2.64,-30.2 39.88,-45.8 110.66,-56.1"
         style="fill:#231f20;fill-opacity:1;fill-rule:nonzero;stroke:none"
         id="path3792" />
      <path
         d="m 8829.12,35847.9 c -7.59,-1.1 -15.29,-0.5 -22.67,1.6 -79.78,22.7 -188.34,34.8 -306.26,24.5 -116.05,-10.1 -219.38,-40.2 -293.77,-75.6 -7.27,-3.4 -15.12,-5.4 -23.17,-5.4 -58.43,0.2 -94.21,9.4 -96.57,36.4 -5.54,63.3 177.94,165.7 413.51,186.3 235.58,20.6 434.04,-48.4 439.59,-111.7 2.64,-30.2 -39.89,-45.8 -110.66,-56.1"
         style="fill:#231f20;fill-opacity:1;fill-rule:nonzero;stroke:none"
         id="path3794" />
      <path
         d="m 6583.82,35500.5 c -116.09,0 -222.74,-32.8 -306.43,-87.3 -15.15,-5.8 -30.81,-10.5 -46.89,-13.5 -30.84,-6.1 -63,-5.7 -93.36,2.2 -29.79,8.4 -58.3,25 -74.1,53.3 -8.28,14.5 -12.81,31.8 -14.29,50.2 -0.8,9.8 -14.78,11.3 -17.06,1.7 -4.7,-19.8 -6.04,-41.1 -1.83,-63.2 8.2,-43.5 39.82,-80.7 76.44,-105 18.53,-12.1 38.53,-21.8 59.36,-29.1 -14.03,-18.9 -26.16,-38.7 -36.1,-59.5 -2.57,0.6 -5.14,1.1 -7.68,1.8 -29.79,8.4 -58.3,25 -74.1,53.3 -8.28,14.5 -12.81,31.8 -14.29,50.2 -0.8,9.8 -14.78,11.3 -17.06,1.7 -4.71,-19.9 -6.04,-41.1 -1.83,-63.2 8.2,-43.5 39.82,-80.7 76.44,-105 4.59,-3 9.29,-5.8 14.06,-8.5 -5.09,-22.6 -7.81,-45.7 -7.81,-69.4 0,-26.7 3.42,-53.4 10.16,-79.3 4.26,-16.5 21,-27.6 41.63,-27.8 h 0.52 c 20.54,0 37.45,10.9 42.13,27.2 36.28,125.6 184.02,267.3 386.42,282.5 212.03,16 397.22,-110.4 453.82,-241.9 2.9,-6.7 11.37,-10.9 19.94,-10 8.73,0.8 15.53,6.5 16.33,13.7 1.43,12.5 2.12,24.2 2.12,35.6 0,214.7 -218.26,389.3 -486.54,389.3"
         style="fill:#231f20;fill-opacity:1;fill-rule:nonzero;stroke:none"
         id="path3796" />
      <path
         d="m 8481.17,35500.5 c 116.09,0 222.74,-32.8 306.44,-87.3 15.14,-5.8 30.8,-10.5 46.89,-13.5 30.83,-6.1 63,-5.7 93.35,2.2 29.79,8.4 58.31,25 74.1,53.3 8.29,14.5 12.82,31.8 14.3,50.2 0.8,9.8 14.78,11.3 17.05,1.7 4.71,-19.8 6.05,-41.1 1.84,-63.2 -8.21,-43.5 -39.83,-80.7 -76.44,-105 -18.53,-12.1 -38.53,-21.8 -59.37,-29.1 14.03,-18.9 26.16,-38.7 36.1,-59.5 2.57,0.6 5.14,1.1 7.69,1.8 29.79,8.4 58.3,25 74.1,53.3 8.28,14.5 12.8,31.8 14.29,50.2 0.79,9.8 14.77,11.3 17.05,1.7 4.71,-19.9 6.05,-41.1 1.84,-63.2 -8.21,-43.5 -39.83,-80.7 -76.44,-105 -4.6,-3 -9.29,-5.8 -14.06,-8.5 5.09,-22.6 7.81,-45.7 7.81,-69.4 0,-26.7 -3.43,-53.4 -10.16,-79.3 -4.27,-16.5 -21,-27.6 -41.64,-27.8 h -0.52 c -20.53,0 -37.44,10.9 -42.13,27.2 -36.27,125.6 -184.02,267.3 -386.41,282.5 -212.04,16 -397.23,-110.4 -453.83,-241.9 -2.89,-6.7 -11.37,-10.9 -19.93,-10 -8.74,0.8 -15.54,6.5 -16.34,13.7 -1.42,12.5 -2.12,24.2 -2.12,35.6 0,214.7 218.26,389.3 486.54,389.3"
         style="fill:#231f20;fill-opacity:1;fill-rule:nonzero;stroke:none"
         id="path3798" />
    </g>
  </g>
</svg>
