<?xml version="1.0" encoding="UTF-8" standalone="no"?>
<!-- Created with Inkscape (http://www.inkscape.org/) -->

<svg
   version="1.1"
   id="svg2"
   width="676.88379"
   height="819.36774"
   viewBox="0 0 676.8838 819.36773"
   sodipodi:docname="logo-small.svg"
   inkscape:version="1.3 (0e150ed6c4, 2023-07-21)"
   xmlns:inkscape="http://www.inkscape.org/namespaces/inkscape"
   xmlns:sodipodi="http://sodipodi.sourceforge.net/DTD/sodipodi-0.dtd"
   xmlns="http://www.w3.org/2000/svg"
   xmlns:svg="http://www.w3.org/2000/svg">
  <defs
     id="defs6" />
  <sodipodi:namedview
     id="namedview4"
     pagecolor="#ffffff"
     bordercolor="#000000"
     borderopacity="0.25"
     inkscape:showpageshadow="2"
     inkscape:pageopacity="0.0"
     inkscape:pagecheckerboard="0"
     inkscape:deskcolor="#d1d1d1"
     showgrid="false"
     inkscape:zoom="0.30224999"
     inkscape:cx="698.09762"
     inkscape:cy="441.68736"
     inkscape:window-width="1680"
     inkscape:window-height="979"
     inkscape:window-x="1912"
     inkscape:window-y="-8"
     inkscape:window-maximized="1"
     inkscape:current-layer="g10" />
  <g
     id="g8"
     inkscape:groupmode="layer"
     inkscape:label="ink_ext_XXXXXX"
     transform="matrix(1.3333333,0,0,-1.3333333,-665.88856,5088.6467)">
    <g
       id="g10"
       transform="scale(0.1)">
      <path
         d="m 6201.1559,32098.293 c -15.82,-11.9 -34.25,-22.7 -53.23,-18.4 -23.91,5.3 -36.19,31.4 -43.56,54.8 -54.47,172.6 -31.83,364.5 -100.52,531.8 -112.21,273.5 -424.54,397.3 -632.71,607.1 -174.72,176.1 -276.53,422.5 -277.12,670.6 -0.41,175.4 47.75,348.4 121,507.8 40.88,88.9 91.74,176.8 169.63,236.1 86.26,65.7 196.95,89.8 304.78,101.2 118.38,12.5 246.06,9.4 345.29,-56.3 131.9,-87.4 176.1,-257 213.31,-410.8 51.61,-213.3 107.42,-428.2 185.18,-633.8 70.43,-186.1 187.13,-361.2 205.69,-563.4 35.21,-383.6 -129.11,-784.2 -433.21,-1023.2 -1.48,-1.1 -3,-2.3 -4.53,-3.5"
         style="fill:#552200;fill-opacity:1;fill-rule:nonzero;stroke:none"
         id="path3724-7" />
      <path
         d="m 8850.4,32105.9 c 15.82,-11.9 34.25,-22.7 53.23,-18.4 23.91,5.3 36.19,31.4 43.56,54.8 54.47,172.6 31.83,364.5 100.52,531.8 112.21,273.5 424.54,397.3 632.71,607.1 174.72,176.1 276.53,422.5 277.12,670.6 0.41,175.4 -47.75,348.4 -121,507.8 -40.88,88.9 -91.74,176.8 -169.63,236.1 -86.26,65.7 -196.95,89.8 -304.78,101.2 -118.38,12.5 -246.06,9.4 -345.29,-56.3 -131.9,-87.4 -176.1,-257 -213.31,-410.8 -51.61,-213.3 -107.42,-428.2 -185.18,-633.8 -70.43,-186.1 -187.13,-361.2 -205.69,-563.4 -35.21,-383.6 129.11,-784.2 433.21,-1023.2 1.48,-1.1 3,-2.3 4.53,-3.5"
         style="fill:#552200;fill-opacity:1;fill-rule:nonzero;stroke:none"
         id="path3724" />
      <path
         d="m 9734.31,34564.7 c 27.51,-40.7 49,-83.6 66.45,-121.6 78.26,-170.2 117.75,-335.5 117.39,-491.2 -0.56,-239 -97.4,-473.3 -265.7,-643 -71.51,-72.1 -158.2,-135.5 -242.06,-196.9 -158.5,-116 -322.4,-236 -399.11,-422.9 -39.41,-96 -50.28,-198.7 -60.79,-297.9 -8.81,-83.3 -17.13,-161.9 -40.86,-237 -7.75,-24.6 -14.61,-28.3 -14.67,-28.3 -0.08,0 -5.22,-0.3 -20.84,11.5 h -0.03 c -1.33,1 -2.62,2 -3.9,3 -85.91,67.5 -160.82,149.4 -222.72,240.9 -145.94,215.7 -219.69,485.2 -195.6,747.7 12.05,131.3 67.33,250 125.86,375.6 26.85,57.6 54.61,117.2 77.45,177.5 74.03,195.7 128.15,396.7 186.62,638.4 32.98,136.3 74.01,305.9 196.79,387.2 74.34,49.3 175.84,65.2 319.41,50 130.37,-13.7 218.28,-42.5 285.05,-93.4 36.36,-27.7 66.3,-62.7 91.26,-99.6 M 8580.99,32338.2 c 67.3,-99.5 148.42,-187.3 240.54,-259.7 1.72,-1.4 3.44,-2.7 5.2,-4 19.57,-14.8 49.71,-33.4 85.47,-25.5 33.43,7.5 57.85,34.9 72.55,81.5 26.1,82.7 35.23,168.9 44.07,252.4 10.38,98 20.19,190.7 55.32,276.3 68.27,166.4 216.18,274.6 372.78,389.2 86.3,63.2 175.56,128.6 251.45,205 182.77,184.3 287.94,438.8 288.55,698.3 0.39,167.2 -41.53,343.6 -124.6,524.3 -37.11,80.8 -91.28,182.3 -181.55,251 -102.25,77.9 -234.17,99.6 -324.52,109.1 -102.43,10.8 -252.34,16 -371.16,-62.7 -148.56,-98.4 -193.62,-284.7 -229.83,-434.3 -57.79,-238.9 -111.15,-437.3 -183.75,-629.1 -21.8,-57.6 -48.93,-115.9 -75.16,-172.2 -58.81,-126.2 -119.62,-256.6 -132.91,-401.6 -17.97,-195.8 13.94,-398 92.27,-584.7 31.71,-75.5 70.43,-147 115.28,-213.3"
         style="fill:#231f20;fill-opacity:1;fill-rule:nonzero;stroke:none"
         id="path3730" />
      <path
         d="m 9717.75,34553.5 c 28.71,-42.4 50.76,-88.1 64.84,-118.7 77.04,-167.6 115.93,-330.1 115.56,-482.9 -0.55,-233.7 -95.27,-463 -259.9,-628.9 -70.42,-71 -156.46,-134 -239.66,-194.9 -160.75,-117.6 -326.97,-239.3 -405.81,-431.4 -40.5,-98.7 -51.52,-202.8 -62.18,-303.4 -8.7,-82.3 -16.92,-159.9 -40.03,-233.1 -0.99,-3.1 -1.93,-5.8 -2.82,-8 l -1.6,1.1 -0.2,0.2 -3.44,2.7 c -83.01,65.2 -156.52,144.7 -218.48,236.3 -145.31,214.8 -215.37,482.6 -192.24,734.7 11.73,127.8 66.3,244.9 124.07,368.9 27,57.9 54.89,117.8 78.02,178.9 74.42,196.6 128.72,398.4 187.37,640.8 32.15,132.9 72.16,298.3 188.38,375.3 70.25,46.5 167.58,61.4 306.28,46.7 126.5,-13.3 211.33,-40.9 275.02,-89.4 31.36,-23.9 59.76,-54.9 86.82,-94.9 m -835.57,-2412.4 h -0.11 0.11 m 12.78,-35.2 c 2.88,0 5.74,0.6 8.39,1.8 9.78,4.5 18.31,18.1 25.36,40.4 24.32,77.1 32.75,156.7 41.67,240.9 10.36,97.9 21.08,199.1 59.4,292.5 74.57,181.7 236.16,300 392.43,414.4 84.45,61.8 171.79,125.7 244.44,198.9 171.97,173.4 270.93,412.8 271.5,657 0.37,158.7 -39.74,326.8 -119.21,499.7 -14.68,31.9 -37.7,79.5 -68.05,124.4 -29.54,43.7 -60.85,77.8 -95.72,104.4 -69.86,53.2 -160.86,83.2 -295.07,97.3 -148.44,15.7 -254.13,-1.2 -332.56,-53.2 -129.32,-85.7 -171.38,-259.5 -205.17,-399.2 -58.29,-240.9 -112.23,-441.3 -185.9,-636 -22.6,-59.7 -50.18,-118.9 -76.87,-176.2 -59.28,-127.2 -115.28,-247.4 -127.64,-382.2 -23.97,-261.1 48.55,-538.4 198.94,-760.7 64.27,-95 140.63,-177.6 226.93,-245.4 l 4.17,-3.3 0.41,-0.2 c 13.47,-10.2 23.57,-15 31.77,-15.3 h 0.78 m 365.91,2716.3 c 37.3,0 72.49,-2.8 103.29,-6 87.94,-9.3 216.22,-30.3 314.49,-105.1 86.74,-66.1 139.36,-164.8 175.49,-243.4 81.86,-178.1 123.16,-351.6 122.77,-515.9 -0.59,-254.4 -103.64,-503.7 -282.73,-684.3 -74.79,-75.4 -163.39,-140.2 -249.08,-202.9 -158.95,-116.4 -309.05,-226.2 -379.45,-397.8 -36.23,-88.3 -46.19,-182.3 -56.72,-281.8 -8.73,-82.5 -17.76,-167.7 -43.26,-248.5 -12.4,-39.3 -31.85,-62.2 -57.83,-68 -27.39,-6.1 -51.29,8.5 -69.07,21.9 -1.68,1.3 -3.3,2.5 -4.88,3.8 -90.26,70.9 -169.78,156.8 -236.34,255.2 -44.24,65.4 -82.39,136 -113.39,209.9 -77.08,183.6 -108.48,382.5 -90.81,575.1 12.99,141.5 73.04,270.3 131.12,395 26.41,56.7 53.68,115.2 75.74,173.5 72.97,192.8 126.53,391.9 184.48,631.5 35.39,146.2 79.43,328.3 221.44,422.3 78.29,51.9 171.71,65.5 254.74,65.5 m -365.67,-2795 c 6.87,0 14.01,0.7 21.35,2.3 40.9,9.1 70.26,41.1 87.27,94.9 26.71,84.7 35.95,171.9 44.88,256.4 10.23,96.6 19.89,187.8 53.95,270.8 66.13,161.1 211.8,267.8 366.04,380.7 86.97,63.6 176.8443,129.426 253.89,207.1 186.4043,187.926 293.72,447.5 294.32,712.2 0.4,170.2 -42.12,349.4 -126.41,532.8 -38.09,82.8 -93.82,187.1 -187.6,258.5 -106.26,81 -241.82,103.3 -334.54,113 -105.5,11.2 -260.11,16.4 -384.31,-65.8 -155.1,-102.8 -201.2,-293.3 -238.23,-446.3 -57.6,-238.2 -110.77,-435.9 -183.01,-626.7 -21.53,-56.9 -48.49,-114.8 -74.56,-170.8 -59.55,-127.8 -121.1,-259.9 -134.72,-408.3 -18.26,-199.1 14.15,-404.6 93.75,-594.2 32.02,-76.3 71.43,-149.3 117.15,-216.8 l 16.57,11.2 -16.57,-11.2 c 68.88,-101.9 151.23,-190.8 244.76,-264.3 1.83,-1.4 3.67,-2.8 5.55,-4.2 11.1,-8.4 41.55,-31.3 80.47,-31.3"
         style="fill:#231f20;fill-opacity:1;fill-rule:nonzero;stroke:none"
         id="path3732"
         sodipodi:nodetypes="cccccccccccscccccccccccccccccccscscccccccscccccccccccccsccccsccsccccccccccscccccccccccccccc" />
      <path
         d="m 9626.86,34771.7 c -210.03,-7.9 -412.33,363.2 -392.73,646 19.6,282.9 253.69,370.3 463.71,378.2 210.02,7.8 334.06,-210.9 314.46,-493.7 -19.63,-282.9 -175.42,-522.6 -385.44,-530.5"
         style="fill:#ffd384;fill-opacity:1;fill-rule:nonzero;stroke:none"
         id="path3740" />
      <path
         d="m 9623.91,34812.4 c -29.42,-1.1 -62.09,11.2 -97.14,36.4 -142.21,102.5 -250.38,362.1 -236.17,566.9 1.91,27.7 6.12,54.2 12.49,78.8 55.97,215.8 273.19,255.9 397.69,260.6 43.45,1.6 83.34,-10.4 118.57,-35.8 47.34,-34.1 84.02,-89.4 107.69,-158.7 24.87,-72.8 35.36,-161.1 28.75,-256.4 -3.44,-49.8 -11.35,-98.8 -23.51,-145.6 -52.42,-202.1 -176.34,-341.2 -308.37,-346.2 m 317.48,103 c 72.01,102.5 117.21,239.1 127.31,384.7 14.7,211.6 -48.7,389.9 -169.47,477 -58,41.8 -128.67,62.4 -204.33,59.5 -126.98,-4.7 -430.17,-46.1 -502.78,-325.9 -7.39,-28.5 -12.25,-59.1 -14.46,-90.9 -6.49,-93.7 9.99,-196.3 43.02,-293 47.51,-139.1 129.3,-265.9 226.2,-335.7 58.65,-42.3 120.19,-62.5 182.92,-60.2 120.54,4.5 231.2,70 311.59,184.5"
         style="fill:#231f20;fill-opacity:1;fill-rule:nonzero;stroke:none"
         id="path3744" />
      <path
         d="m 5438.14,34771.7 c 210.02,-7.9 412.33,363.2 392.73,646 -19.61,282.9 -253.7,370.3 -463.72,378.2 -210.02,7.8 -334.03,-210.9 -314.43,-493.7 19.6,-282.9 175.39,-522.6 385.42,-530.5"
         style="fill:#ffd384;fill-opacity:1;fill-rule:nonzero;stroke:none"
         id="path3746" />
      <path
         d="m 5317.2459,34557.093 c -27.51,-40.7 -49,-83.6 -66.45,-121.6 -78.26,-170.2 -117.75,-335.5 -117.39,-491.2 0.56,-239 97.4,-473.3 265.7,-643 71.51,-72.1 158.2,-135.5 242.06,-196.9 158.5,-116 322.4,-236 399.11,-422.9 39.41,-96 50.28,-198.7 60.79,-297.9 8.81,-83.3 17.13,-161.9 40.86,-237 7.75,-24.6 14.61,-28.3 14.67,-28.3 0.08,0 5.22,-0.3 20.84,11.5 h 0.03 c 1.33,1 2.62,2 3.9,3 85.91,67.5 160.82,149.4 222.72,240.9 145.94,215.7 219.69,485.2 195.6,747.7 -12.05,131.3 -67.33,250 -125.86,375.6 -26.85,57.6 -54.61,117.2 -77.45,177.5 -74.03,195.7 -128.15,396.7 -186.62,638.4 -32.98,136.3 -74.01,305.9 -196.79,387.2 -74.34,49.3 -175.84,65.2 -319.41,50 -130.37,-13.7 -218.28,-42.5 -285.05,-93.4 -36.36,-27.7 -66.3,-62.7 -91.26,-99.6 m 1153.32,-2226.5 c -67.3,-99.5 -148.42,-187.3 -240.54,-259.7 -1.72,-1.4 -3.44,-2.7 -5.2,-4 -19.57,-14.8 -49.71,-33.4 -85.47,-25.5 -33.43,7.5 -57.85,34.9 -72.55,81.5 -26.1,82.7 -35.23,168.9 -44.07,252.4 -10.38,98 -20.19,190.7 -55.32,276.3 -68.27,166.4 -216.18,274.6 -372.78,389.2 -86.3,63.2 -175.56,128.6 -251.45,205 -182.77,184.3 -287.94,438.8 -288.55,698.3 -0.39,167.2 41.53,343.6 124.6,524.3 37.11,80.8 91.28,182.3 181.55,251 102.25,77.9 234.17,99.6 324.52,109.1 102.43,10.8 252.34,16 371.16,-62.7 148.56,-98.4 193.62,-284.7 229.83,-434.3 57.79,-238.9 111.15,-437.3 183.75,-629.1 21.8,-57.6 48.93,-115.9 75.16,-172.2 58.81,-126.2 119.62,-256.6 132.91,-401.6 17.97,-195.8 -13.94,-398 -92.27,-584.7 -31.71,-75.5 -70.43,-147 -115.28,-213.3"
         style="fill:#231f20;fill-opacity:1;fill-rule:nonzero;stroke:none"
         id="path3730-6" />
      <path
         d="m 5441.08,34812.4 c 29.41,-1.1 62.09,11.2 97.14,36.4 142.21,102.5 250.38,362.1 236.17,566.9 -1.91,27.7 -6.12,54.2 -12.49,78.8 -55.97,215.8 -273.19,255.9 -397.68,260.6 -43.45,1.6 -83.35,-10.4 -118.58,-35.8 -47.34,-34.1 -84.01,-89.4 -107.69,-158.7 -24.87,-72.8 -35.37,-161.1 -28.75,-256.4 3.44,-49.8 11.35,-98.8 23.51,-145.6 52.42,-202.1 176.34,-341.2 308.37,-346.2 m -317.48,103 c -72.03,102.5 -117.25,239.1 -127.35,384.7 -14.67,211.6 48.7,389.9 169.53,477 57.98,41.8 128.64,62.4 204.31,59.5 126.98,-4.7 430.18,-46.1 502.79,-325.9 7.39,-28.5 12.24,-59.1 14.45,-90.9 6.49,-93.7 -9.98,-196.3 -43.01,-293 -47.52,-139.1 -129.31,-265.9 -226.21,-335.7 -58.65,-42.3 -120.18,-62.5 -182.92,-60.2 -120.54,4.5 -231.2,70 -311.59,184.5"
         style="fill:#231f20;fill-opacity:1;fill-rule:nonzero;stroke:none"
         id="path3750" />
      <path
         d="m 5333.8059,34545.893 c -28.71,-42.4 -50.76,-88.1 -64.84,-118.7 -77.04,-167.6 -115.93,-330.1 -115.56,-482.9 0.55,-233.7 95.27,-463 259.9,-628.9 70.42,-71 156.46,-134 239.66,-194.9 160.75,-117.6 326.97,-239.3 405.81,-431.4 40.5,-98.7 51.52,-202.8 62.18,-303.4 8.7,-82.3 16.92,-159.9 40.03,-233.1 0.99,-3.1 1.93,-5.8 2.82,-8 l 1.6,1.1 0.2,0.2 3.44,2.7 c 83.01,65.2 156.52,144.7 218.48,236.3 145.31,214.8 215.37,482.6 192.24,734.7 -11.73,127.8 -66.3,244.9 -124.07,368.9 -27,57.9 -54.89,117.8 -78.02,178.9 -74.42,196.6 -128.72,398.4 -187.37,640.8 -32.15,132.9 -72.16,298.3 -188.38,375.3 -70.25,46.5 -167.58,61.4 -306.28,46.7 -126.5,-13.3 -211.33,-40.9 -275.02,-89.4 -31.36,-23.9 -59.76,-54.9 -86.82,-94.9 m 835.57,-2412.4 h 0.11 -0.11 m -12.78,-35.2 c -2.88,0 -5.74,0.6 -8.39,1.8 -9.78,4.5 -18.31,18.1 -25.36,40.4 -24.32,77.1 -32.75,156.7 -41.67,240.9 -10.36,97.9 -21.08,199.1 -59.4,292.5 -74.57,181.7 -236.16,300 -392.43,414.4 -84.45,61.8 -171.79,125.7 -244.44,198.9 -171.97,173.4 -270.93,412.8 -271.5,657 -0.37,158.7 39.74,326.8 119.21,499.7 14.68,31.9 37.7,79.5 68.05,124.4 29.54,43.7 60.85,77.8 95.72,104.4 69.86,53.2 160.86,83.2 295.07,97.3 148.44,15.7 254.13,-1.2 332.56,-53.2 129.32,-85.7 171.38,-259.5 205.17,-399.2 58.29,-240.9 112.23,-441.3 185.9,-636 22.6,-59.7 50.18,-118.9 76.87,-176.2 59.28,-127.2 115.28,-247.4 127.64,-382.2 23.97,-261.1 -48.55,-538.4 -198.94,-760.7 -64.27,-95 -140.63,-177.6 -226.93,-245.4 l -4.17,-3.3 -0.41,-0.2 c -13.47,-10.2 -23.57,-15 -31.77,-15.3 h -0.78 m -365.91,2716.3 c -37.3,0 -72.49,-2.8 -103.29,-6 -87.94,-9.3 -216.22,-30.3 -314.49,-105.1 -86.74,-66.1 -139.36,-164.8 -175.49,-243.4 -81.86,-178.1 -123.16,-351.6 -122.77,-515.9 0.59,-254.4 103.64,-503.7 282.73,-684.3 74.79,-75.4 163.39,-140.2 249.08,-202.9 158.95,-116.4 309.05,-226.2 379.45,-397.8 36.23,-88.3 46.19,-182.3 56.72,-281.8 8.73,-82.5 17.76,-167.7 43.26,-248.5 12.4,-39.3 31.85,-62.2 57.83,-68 27.39,-6.1 51.29,8.5 69.07,21.9 1.68,1.3 3.3,2.5 4.88,3.8 90.26,70.9 169.78,156.8 236.34,255.2 44.24,65.4 82.39,136 113.39,209.9 77.08,183.6 108.48,382.5 90.81,575.1 -12.99,141.5 -73.04,270.3 -131.12,395 -26.41,56.7 -53.68,115.2 -75.74,173.5 -72.97,192.8 -126.53,391.9 -184.48,631.5 -35.39,146.2 -79.43,328.3 -221.44,422.3 -78.29,51.9 -171.71,65.5 -254.74,65.5 m 365.67,-2795 c -6.87,0 -14.01,0.7 -21.35,2.3 -40.9,9.1 -70.26,41.1 -87.27,94.9 -26.71,84.7 -35.95,171.9 -44.88,256.4 -10.23,96.6 -19.89,187.8 -53.95,270.8 -66.13,161.1 -211.8,267.8 -366.04,380.7 -86.97,63.6 -176.844,129.426 -253.89,207.1 -186.404,187.926 -293.72,447.5 -294.32,712.2 -0.4,170.2 42.12,349.4 126.41,532.8 38.09,82.8 93.82,187.1 187.6,258.5 106.26,81 241.82,103.3 334.54,113 105.5,11.2 260.11,16.4 384.31,-65.8 155.1,-102.8 201.2,-293.3 238.23,-446.3 57.6,-238.2 110.77,-435.9 183.01,-626.7 21.53,-56.9 48.49,-114.8 74.56,-170.8 59.55,-127.8 121.1,-259.9 134.72,-408.3 18.26,-199.1 -14.15,-404.6 -93.75,-594.2 -32.02,-76.3 -71.43,-149.3 -117.15,-216.8 l -16.57,11.2 16.57,-11.2 c -68.88,-101.9 -151.23,-190.8 -244.76,-264.3 -1.83,-1.4 -3.67,-2.8 -5.55,-4.2 -11.1,-8.4 -41.55,-31.3 -80.47,-31.3"
         style="fill:#231f20;fill-opacity:1;fill-rule:nonzero;stroke:none"
         id="path3732-2"
         sodipodi:nodetypes="cccccccccccscccccccccccccccccccscscccccccscccccccccccccsccccsccsccccccccccscccccccccccccccc" />
      <path
         d="m 8366.05,37480.8 c -262.9,124.4 -553.2,178.8 -842.54,169.1 -289.34,9.7 -579.63,-44.7 -842.53,-169.1 -855.57,-404.9 -1249.46,-761.1 -1180.96,-1568.7 8.2,-96.6 7.89,-193.7 0.16,-290.4 -69.26,-865.5 324.58,-1750.6 1180.8,-2155.9 262.9,-124.4 553.19,-178.9 842.53,-169.1 289.34,-9.8 579.64,44.7 842.54,169.1 856.23,405.3 1250.07,1290.4 1180.8,2155.9 -7.73,96.7 -8.03,193.8 0.16,290.4 68.5,807.6 -325.39,1163.8 -1180.96,1568.7"
         style="fill:#ffd384;fill-opacity:1;fill-rule:nonzero;stroke:none"
         id="path3752" />
      <path
         d="m 7525.56,33360.5 c 21,-0.7 42.25,-1.1 63.22,-1.1 264.14,0 523.78,56.8 750.85,164.3 768.05,363.5 1217.39,1185 1144.75,2092.9 -8.17,102 -8.1,203.3 0.19,301 66.8,787.6 -315.96,1113 -1144.94,1505.3 -227.1,107.5 -486.46,164.3 -750.03,164.3 -21.23,0 -42.77,-0.3 -64.05,-1.1 l -2.04,-0.1 -2.03,0.1 c -20.94,0.7 -42.16,1.1 -63.09,1.1 -264.21,0 -523.91,-56.8 -750.99,-164.3 -828.98,-392.3 -1211.75,-717.7 -1144.95,-1505.3 8.31,-97.7 8.38,-199 0.19,-301 -72.64,-907.9 376.71,-1729.4 1144.75,-2092.9 227.06,-107.5 486.88,-164.3 751.4,-164.3 20.75,0 41.83,0.4 62.65,1.1 l 2.07,0.1 2.05,-0.1 m 62.75,-128.7 c -20.53,0 -41.85,0.3 -63.38,1 h -2.85 c -20.74,-0.7 -41.83,-1 -62.67,-1 -283.06,0 -561.36,60.9 -804.84,176.1 -816.18,386.3 -1293.83,1257.3 -1216.86,2219 7.6,95 7.56,189.1 -0.13,279.7 -34.97,412.3 47.37,724.4 259.14,982.2 185,225.3 471.46,419.6 957.84,649.8 243.44,115.3 521.86,176.2 805.19,176.2 20.69,0 41.67,-0.4 62.37,-1 h 2.85 c 20.64,0.6 41.62,1 62.31,1 283.3,0 561.73,-60.9 805.18,-176.2 486.38,-230.1 772.84,-424.5 957.85,-649.8 211.76,-257.8 294.1,-569.9 259.14,-982.2 -7.68,-90.6 -7.72,-184.7 -0.15,-279.7 76.97,-961.7 -400.67,-1832.7 -1216.84,-2219 -243.46,-115.2 -521.53,-176.1 -804.15,-176.1"
         style="fill:#231f20;fill-opacity:1;fill-rule:nonzero;stroke:none"
         id="path3760" />
      <path
         d="m 9747.29,36237.8 c -0.29,10.9 -0.74,21.8 -1.27,32.7 10.72,176.8 -13.57,359.6 -72.15,537.4 -75.3,228.6 -205.11,444 -375.39,623.1 -320.03,336.5 -788.17,567 -1318.16,649.2 -149.31,23.1 -299.28,33.6 -447.82,32.1 -148.55,1.5 -298.52,-9 -447.83,-32.1 -529.99,-82.2 -998.13,-312.7 -1318.16,-649.2 -170.27,-179.1 -300.08,-394.5 -375.39,-623.1 -58.58,-177.8 -82.87,-360.6 -72.15,-537.4 -0.53,-10.9 -0.98,-21.8 -1.27,-32.7 -2.27,-84.1 -5.38,-199.3 32.33,-294.7 20.24,-51.2 62.89,-91.6 116.99,-111 20.8,-7.4 42.52,-11.4 64.3,-12.1 34.87,-1.1 1146.19,316.8 1583.98,559.5 78.08,43.3 151.83,84.2 225.23,123.4 44.59,23.9 108.96,57.6 191.97,100.5 82.99,-42.9 147.39,-76.6 191.98,-100.5 73.39,-39.2 147.14,-80.1 225.21,-123.4 437.8,-242.7 1549.11,-560.6 1583.99,-559.5 21.77,0.7 43.49,4.7 64.29,12.1 54.1,19.4 96.74,59.8 117,111 37.71,95.4 34.59,210.6 32.32,294.7"
         style="fill:#552200;fill-opacity:1;fill-rule:nonzero;stroke:none"
         id="path3762" />
      <path
         d="m 9750.58,36272.5 c -0.35,0 -1.56,1.9 -3.51,5.3 0.76,16.8 1.19,33.6 1.33,50.5 -0.2,-16.2 -0.74,-32.9 -1.79,-49.7 -0.04,0.1 -0.07,0.2 -0.11,0.2 9.47,174.2 -14.97,354.1 -72.63,529.1 -75.3,228.6 -205.11,444 -375.39,623.1 -320.03,336.5 -788.17,567 -1318.16,649.2 -140.11,21.7 -280.83,32.2 -420.38,32.2 -9.16,0 -18.3,0 -27.44,-0.1 -9.14,0.1 -18.3,0.1 -27.45,0.1 -139.56,0 -280.26,-10.5 -420.38,-32.2 -529.99,-82.2 -998.13,-312.7 -1318.16,-649.2 -170.27,-179.1 -300.08,-394.5 -375.39,-623.1 -55.52,-168.5 -80.24,-341.5 -73.54,-509.7 -0.06,-0.1 -0.12,-0.2 -0.18,-0.3 -0.42,10.3 -0.67,20.5 -0.8,30.5 0.08,-10.3 0.28,-20.6 0.59,-31 -8.08,-15.8 -13.11,-24.9 -13.88,-24.9 -0.08,0 -0.12,0.1 -0.11,0.3 -10.73,176.8 13.57,359.7 72.15,537.5 75.3,228.5 205.11,444 375.39,623 320.03,336.5 788.17,567.1 1318.16,649.2 140.17,21.7 280.92,32.3 420.53,32.3 9.1,0 18.2,-0.1 27.29,-0.2 0.91,0 1.82,0 2.72,0 0.91,0 1.82,0 2.73,0 1.58,0 3.18,0 4.77,0 1.58,0 3.17,0 4.77,0 0.91,0 1.82,0 2.72,0 0.91,0 1.82,0 2.73,0 9.1,0.1 18.19,0.2 27.3,0.2 139.59,0 280.37,-10.6 420.53,-32.3 529.99,-82.1 998.12,-312.7 1318.16,-649.2 170.27,-179 300.07,-394.5 375.39,-623 58.58,-177.8 82.87,-360.7 72.14,-537.5 0.01,-0.2 -0.02,-0.3 -0.1,-0.3"
         style="fill:#ffffff;fill-opacity:1;fill-rule:nonzero;stroke:none"
         id="path3764" />
      <path
         d="m 9604.75,35828.3 c 0.08,2.2 0.16,4.3 0.24,6.5 50.76,20.2 90.6,59.4 109.98,108.3 27.3,69.1 33.2,148.5 33.52,219 0.31,-73.5 -4.59,-158.4 -33.52,-231.5 -16.9,-42.7 -49.37,-78 -91.07,-99.7 -6.24,-0.8 -12.63,-1.6 -19.15,-2.6 m -4162.55,2.5 c -0.37,0 -0.74,0.1 -1.11,0.1 -41.7,21.7 -74.18,57 -91.06,99.7 -28.94,73.1 -33.84,158 -33.53,231.5 0.32,-70.5 6.22,-149.9 33.53,-219 16.96,-42.9 49.67,-78.2 91.65,-100 0.19,-4.1 0.36,-8.2 0.52,-12.3"
         style="fill:#bdbbbc;fill-opacity:1;fill-rule:nonzero;stroke:none"
         id="path3768" />
      <path
         d="m 9604.53,35822.1 c 0.07,2.1 0.14,4.2 0.22,6.2 6.52,1 12.91,1.8 19.15,2.6 -6.25,-3.2 -12.72,-6.2 -19.37,-8.8"
         style="fill:#231f20;fill-opacity:1;fill-rule:nonzero;stroke:none"
         id="path3770" />
      <path
         d="m 5442.21,35830.3 c -0.37,0.2 -0.74,0.4 -1.12,0.6 0.37,0 0.74,-0.1 1.11,-0.1 0,-0.2 0.01,-0.3 0.01,-0.5"
         style="fill:#231f20;fill-opacity:1;fill-rule:nonzero;stroke:none"
         id="path3772" />
      <path
         d="m 9533.49,35686.6 c -4.48,0 -23.35,4.2 -53.91,12.2 -1.66,44.8 -1.7,89.4 -0.13,133.4 30.63,-7.9 49.55,-12.2 54.04,-12.2 0.07,0 0.13,0 0.19,0 21.77,0.7 43.49,4.7 64.29,12.1 2.36,0.9 4.7,1.8 7.02,2.7 -0.08,-2.2 -0.16,-4.3 -0.24,-6.5 -0.08,-2 -0.15,-4.1 -0.22,-6.2 -2.17,-0.9 -4.35,-1.7 -6.56,-2.5 -20.8,-7.4 -42.52,-132.3 -64.29,-133 -0.06,0 -0.12,0 -0.19,0 m -4001.98,0 c -0.06,0 -0.13,0 -0.19,0 -21.78,0.7 -43.5,125.6 -64.3,133 -8.57,3.1 -16.85,6.7 -24.81,10.7 0,0.2 -0.01,0.3 -0.01,0.5 -0.16,4.1 -0.33,8.2 -0.52,12.3 8.12,-4.1 16.58,-7.8 25.34,-11 20.8,-7.4 42.52,-11.4 64.3,-12.1 0.06,0 0.13,0 0.19,0 3.53,0 16.05,2.6 36.23,7.7 1.46,-44.1 1.31,-88.7 -0.46,-133.5 -19.9,-5 -32.27,-7.6 -35.77,-7.6"
         style="fill:#231f20;fill-opacity:1;fill-rule:nonzero;stroke:none"
         id="path3776" />
      <path
         d="m 9746.35,36263.5 c -0.1,2.2 -0.21,4.4 -0.31,6.6 0.2,2.9 0.39,5.7 0.57,8.5 0.16,-0.3 0.31,-0.5 0.46,-0.8 -0.22,-4.7 -0.46,-9.5 -0.72,-14.3 m -4427.7,0 c -0.64,11.3 -1.12,22.6 -1.46,33.9 0.07,0.2 0.14,0.3 0.21,0.5 0.38,-9.2 0.88,-18.4 1.56,-27.7 -0.11,-2.2 -0.21,-4.4 -0.31,-6.7"
         style="fill:#bdbbbc;fill-opacity:1;fill-rule:nonzero;stroke:none"
         id="path3778" />
      <path
         d="m 9747.07,36277.8 c -0.15,0.3 -0.3,0.5 -0.46,0.8 1.05,16.8 1.59,33.5 1.79,49.7 -0.14,-16.9 -0.57,-33.7 -1.33,-50.5 m -4429.88,19.6 c -0.31,10.4 -0.51,20.7 -0.59,31 0.13,-10 0.38,-20.2 0.8,-30.5 -0.07,-0.2 -0.14,-0.3 -0.21,-0.5"
         style="fill:#bdbbbc;fill-opacity:1;fill-rule:nonzero;stroke:none"
         id="path3782" />
      <path
         d="m 7532.5,36655.8 c 8.26,0 16.52,-1.9 24.07,-5.9 83.03,-42.9 147.83,-76.8 192.59,-100.8 73.65,-39.3 147.46,-80.2 225.61,-123.6 419.98,-232.9 1483.02,-538.4 1560.94,-553 15.32,0.8 30.31,3.9 44.62,9 39.91,14.2 71.22,43.7 85.93,80.9 33.77,85.4 30.82,194.4 28.67,274 v 0 c -0.28,10.5 -0.72,21 -1.22,31.6 -0.1,1.9 -0.09,3.8 0.03,5.7 10.43,171.8 -13,346 -69.61,517.8 -72.91,221.3 -198.64,429.9 -363.6,603.4 -312.11,328.2 -769.61,553.2 -1288.23,633.5 -144.32,22.4 -292.14,33.1 -439.28,31.5 h -1.04 c -147.19,1.6 -294.96,-9.1 -439.28,-31.5 -518.63,-80.3 -976.13,-305.3 -1288.24,-633.5 -164.96,-173.5 -290.69,-382.1 -363.6,-603.4 -56.61,-171.8 -80.03,-346 -69.6,-517.8 0.11,-1.9 0.12,-3.8 0.03,-5.7 -0.51,-10.6 -0.94,-21.1 -1.23,-31.6 -2.14,-79.6 -5.09,-188.7 28.68,-274 14.7,-37.2 46.01,-66.7 85.9,-80.9 14.33,-5.1 29.32,-8.2 44.64,-9 77.93,14.6 1140.97,320.1 1560.62,552.9 78.21,43.3 152.07,84.3 225.94,123.7 44.75,24 109.55,57.9 192.58,100.8 7.55,4 15.81,5.9 24.08,5.9 z m 2000.16,-783.4 -0.57,-0.1 z m -4000.33,0 0.57,-0.1 z m 4002.38,-104.8 c -39.82,0 -391.14,104 -658.15,190.9 -304.48,99.1 -716.85,244.7 -952.26,375.2 -78.11,43.3 -151.58,84.1 -224.51,123 -39.95,21.4 -96.15,50.9 -167.29,87.7 -71.15,-36.8 -127.34,-66.3 -167.29,-87.6 -73.15,-39.1 -146.67,-79.9 -224.51,-123.1 -235.41,-130.5 -647.78,-276.1 -952.27,-375.2 -266.99,-86.9 -618.29,-190.9 -658.15,-190.9 h -0.63 c -27.51,0.9 -54.52,6 -80.26,15.2 -68.29,24.4 -122.27,75.8 -148.07,141.1 -41.65,105.2 -38.37,226.6 -35.98,315.3 0.28,10.3 0.7,20.7 1.18,31 -10.8,184.2 14.38,370.6 74.85,554.1 77.73,235.9 211.61,458.2 387.19,642.8 327.96,344.8 806.72,580.9 1348.09,664.8 149.78,23.2 303.15,34.4 455.85,32.8 152.73,1.6 306.07,-9.5 455.84,-32.8 541.37,-83.8 1020.13,-320 1348.1,-664.8 175.57,-184.6 309.46,-406.9 387.18,-642.8 60.48,-183.5 85.65,-369.9 74.85,-554.1 0.49,-10.3 0.91,-20.7 1.18,-31 2.4,-88.6 5.68,-210 -35.97,-315.3 -25.81,-65.3 -79.8,-116.7 -148.1,-141.1 -25.72,-9.2 -52.72,-14.3 -80.24,-15.2 h -0.63"
         style="fill:#231f20;fill-opacity:1;fill-rule:nonzero;stroke:none"
         id="path3784" />
      <path
         d="m 7532.5,33783.4 c -308.58,0 -550.29,169.6 -550.29,386.1 0,35.4 1100.58,35.4 1100.58,0 0,-216.5 -241.73,-386.1 -550.29,-386.1"
         style="fill:#231f20;fill-opacity:1;fill-rule:nonzero;stroke:none"
         id="path3786" />
      <path
         d="m 6235.88,35847.9 c 7.58,-1.1 15.29,-0.5 22.66,1.6 79.78,22.7 188.34,34.8 306.26,24.5 116.06,-10.1 219.39,-40.2 293.77,-75.6 7.27,-3.4 15.13,-5.4 23.18,-5.4 58.42,0.2 94.2,9.4 96.56,36.4 5.54,63.3 -177.93,165.7 -413.51,186.3 -235.57,20.6 -434.04,-48.4 -439.58,-111.7 -2.64,-30.2 39.88,-45.8 110.66,-56.1"
         style="fill:#231f20;fill-opacity:1;fill-rule:nonzero;stroke:none"
         id="path3792" />
      <path
         d="m 8829.12,35847.9 c -7.59,-1.1 -15.29,-0.5 -22.67,1.6 -79.78,22.7 -188.34,34.8 -306.26,24.5 -116.05,-10.1 -219.38,-40.2 -293.77,-75.6 -7.27,-3.4 -15.12,-5.4 -23.17,-5.4 -58.43,0.2 -94.21,9.4 -96.57,36.4 -5.54,63.3 177.94,165.7 413.51,186.3 235.58,20.6 434.04,-48.4 439.59,-111.7 2.64,-30.2 -39.89,-45.8 -110.66,-56.1"
         style="fill:#231f20;fill-opacity:1;fill-rule:nonzero;stroke:none"
         id="path3794" />
      <path
         d="m 6583.82,35500.5 c -116.09,0 -222.74,-32.8 -306.43,-87.3 -15.15,-5.8 -30.81,-10.5 -46.89,-13.5 -30.84,-6.1 -63,-5.7 -93.36,2.2 -29.79,8.4 -58.3,25 -74.1,53.3 -8.28,14.5 -12.81,31.8 -14.29,50.2 -0.8,9.8 -14.78,11.3 -17.06,1.7 -4.7,-19.8 -6.04,-41.1 -1.83,-63.2 8.2,-43.5 39.82,-80.7 76.44,-105 18.53,-12.1 38.53,-21.8 59.36,-29.1 -14.03,-18.9 -26.16,-38.7 -36.1,-59.5 -2.57,0.6 -5.14,1.1 -7.68,1.8 -29.79,8.4 -58.3,25 -74.1,53.3 -8.28,14.5 -12.81,31.8 -14.29,50.2 -0.8,9.8 -14.78,11.3 -17.06,1.7 -4.71,-19.9 -6.04,-41.1 -1.83,-63.2 8.2,-43.5 39.82,-80.7 76.44,-105 4.59,-3 9.29,-5.8 14.06,-8.5 -5.09,-22.6 -7.81,-45.7 -7.81,-69.4 0,-26.7 3.42,-53.4 10.16,-79.3 4.26,-16.5 21,-27.6 41.63,-27.8 h 0.52 c 20.54,0 37.45,10.9 42.13,27.2 36.28,125.6 184.02,267.3 386.42,282.5 212.03,16 397.22,-110.4 453.82,-241.9 2.9,-6.7 11.37,-10.9 19.94,-10 8.73,0.8 15.53,6.5 16.33,13.7 1.43,12.5 2.12,24.2 2.12,35.6 0,214.7 -218.26,389.3 -486.54,389.3"
         style="fill:#231f20;fill-opacity:1;fill-rule:nonzero;stroke:none"
         id="path3796" />
      <path
         d="m 8481.17,35500.5 c 116.09,0 222.74,-32.8 306.44,-87.3 15.14,-5.8 30.8,-10.5 46.89,-13.5 30.83,-6.1 63,-5.7 93.35,2.2 29.79,8.4 58.31,25 74.1,53.3 8.29,14.5 12.82,31.8 14.3,50.2 0.8,9.8 14.78,11.3 17.05,1.7 4.71,-19.8 6.05,-41.1 1.84,-63.2 -8.21,-43.5 -39.83,-80.7 -76.44,-105 -18.53,-12.1 -38.53,-21.8 -59.37,-29.1 14.03,-18.9 26.16,-38.7 36.1,-59.5 2.57,0.6 5.14,1.1 7.69,1.8 29.79,8.4 58.3,25 74.1,53.3 8.28,14.5 12.8,31.8 14.29,50.2 0.79,9.8 14.77,11.3 17.05,1.7 4.71,-19.9 6.05,-41.1 1.84,-63.2 -8.21,-43.5 -39.83,-80.7 -76.44,-105 -4.6,-3 -9.29,-5.8 -14.06,-8.5 5.09,-22.6 7.81,-45.7 7.81,-69.4 0,-26.7 -3.43,-53.4 -10.16,-79.3 -4.27,-16.5 -21,-27.6 -41.64,-27.8 h -0.52 c -20.53,0 -37.44,10.9 -42.13,27.2 -36.27,125.6 -184.02,267.3 -386.41,282.5 -212.04,16 -397.23,-110.4 -453.83,-241.9 -2.89,-6.7 -11.37,-10.9 -19.93,-10 -8.74,0.8 -15.54,6.5 -16.34,13.7 -1.42,12.5 -2.12,24.2 -2.12,35.6 0,214.7 218.26,389.3 486.54,389.3"
         style="fill:#231f20;fill-opacity:1;fill-rule:nonzero;stroke:none"
         id="path3798" />
    </g>
  </g>
</svg>
