<?xml version="1.0" standalone="no"?>
<!DOCTYPE svg PUBLIC "-//W3C//DTD SVG 20010904//EN"
 "http://www.w3.org/TR/2001/REC-SVG-20010904/DTD/svg10.dtd">
<svg version="1.0" xmlns="http://www.w3.org/2000/svg"
 width="819.000000pt" height="819.000000pt" viewBox="0 0 819.000000 819.000000"
 preserveAspectRatio="xMidYMid meet">
<metadata>
Created by potrace 1.14, written by Peter Selinger 2001-2017
</metadata>
<g transform="translate(0.000000,819.000000) scale(0.100000,-0.100000)"
fill="#000000" stroke="none">
<path d="M3800 8184 c-793 -71 -1439 -324 -1941 -760 -425 -370 -705 -876
-774 -1402 -20 -148 -20 -585 -1 -693 15 -84 44 -156 80 -204 l24 -31 -65 -11
c-252 -44 -412 -288 -413 -629 0 -357 159 -675 397 -791 l80 -39 -45 -39
c-169 -147 -336 -545 -372 -885 -32 -304 52 -630 233 -900 81 -121 257 -288
477 -452 283 -211 364 -286 447 -416 70 -108 97 -214 133 -516 37 -309 78
-401 183 -413 56 -7 100 15 192 97 478 421 677 1145 466 1694 -16 42 -27 76
-25 76 3 0 26 -11 52 -24 199 -99 506 -184 787 -216 151 -18 624 -15 770 5
265 35 503 102 722 201 41 19 75 34 77 34 2 0 -12 -42 -32 -93 -61 -162 -75
-254 -69 -472 3 -161 8 -208 31 -309 52 -223 128 -401 252 -589 83 -126 293
-341 367 -376 97 -47 178 -4 217 113 26 80 36 136 60 340 25 206 43 291 81
374 69 153 181 268 471 486 222 166 324 252 390 329 170 197 274 410 325 663
26 133 23 385 -6 524 -62 292 -196 583 -330 714 l-50 49 81 40 c239 116 398
434 398 791 -1 341 -161 585 -413 629 l-65 11 24 31 c74 98 93 204 94 530 0
347 -21 501 -107 759 -308 929 -1211 1584 -2408 1747 -116 16 -218 21 -450 24
-165 1 -320 1 -345 -1z m454 -2243 c83 -44 221 -118 306 -165 230 -128 472
-231 890 -382 l175 -63 -125 -1 c-137 0 -268 -18 -376 -51 -162 -49 -294 -136
-294 -192 0 -66 101 -73 250 -19 138 50 236 66 405 67 110 0 174 -5 239 -19
76 -16 96 -17 143 -7 29 7 66 23 81 36 26 23 26 25 11 52 l-16 29 231 -71
c127 -40 292 -89 367 -110 l136 -38 9 -176 c34 -663 -55 -1133 -307 -1631
-335 -663 -938 -1162 -1611 -1334 -242 -62 -325 -71 -688 -71 -361 0 -442 8
-685 70 -449 113 -899 391 -1222 754 -485 545 -734 1252 -709 2016 8 262 16
366 30 370 6 2 92 26 191 54 99 28 264 77 366 109 l186 58 -16 -28 c-15 -28
-15 -30 11 -53 15 -13 52 -29 81 -36 47 -10 67 -9 143 7 65 14 129 19 239 19
169 -1 267 -17 405 -67 149 -54 250 -47 250 19 0 56 -132 143 -294 192 -108
33 -239 51 -376 51 l-125 1 150 53 c403 143 688 266 946 408 248 137 422 228
438 228 8 0 82 -36 165 -79z m-2983 -971 l26 0 -1 -357 c-1 -388 4 -449 56
-712 35 -175 36 -171 -52 -171 -94 0 -189 59 -267 163 -233 314 -223 866 20
1039 40 29 113 49 157 43 19 -3 47 -5 61 -5z m5826 -21 c266 -127 295 -726 50
-1056 -84 -113 -181 -168 -283 -161 -35 2 -69 9 -75 15 -9 9 -5 47 15 150 58
302 76 576 57 871 -7 101 -10 187 -6 190 10 11 107 20 155 15 25 -2 64 -13 87
-24z"/>
<path d="M2085 4627 c-15 -76 44 -176 129 -219 22 -11 43 -22 45 -24 4 -4 -39
-74 -45 -74 -3 0 -21 9 -42 19 -40 21 -62 50 -71 95 -9 42 -29 44 -36 3 -11
-58 11 -114 67 -170 l51 -51 -2 -75 c-2 -93 8 -133 38 -148 43 -21 74 0 106
74 35 80 135 191 218 241 184 111 412 119 614 21 98 -47 201 -138 245 -216 85
-151 106 58 22 218 -110 209 -354 330 -638 316 -128 -6 -211 -29 -330 -90 -68
-35 -89 -41 -145 -41 -108 -1 -174 40 -190 118 -9 42 -29 44 -36 3z"/>
<path d="M6067 4653 c-4 -3 -7 -15 -7 -26 0 -35 -38 -83 -82 -103 -29 -13 -64
-19 -109 -18 -56 0 -77 6 -145 41 -119 61 -202 84 -330 90 -284 14 -528 -107
-638 -316 -60 -114 -73 -271 -22 -271 8 0 27 24 44 53 44 78 147 169 245 216
202 98 430 90 614 -21 83 -50 183 -161 218 -241 32 -74 63 -95 106 -74 30 15
40 55 38 148 l-2 75 51 51 c56 56 78 112 67 170 -7 41 -27 39 -36 -3 -9 -45
-31 -74 -71 -95 -21 -10 -39 -19 -42 -19 -6 0 -49 70 -45 74 2 2 23 13 45 24
84 43 144 143 129 219 -6 32 -15 40 -28 26z"/>
<path d="M3497 2890 c-60 -5 -115 -11 -124 -14 -13 -5 -15 -18 -10 -64 12
-140 128 -283 297 -366 153 -75 224 -90 430 -90 206 0 277 15 430 90 174 86
292 234 294 369 l1 60 -45 8 c-62 11 -1140 17 -1273 7z"/>
</g>
</svg>
